<?xml version="1.0" standalone="no"?>
<!DOCTYPE svg PUBLIC "-//W3C//DTD SVG 20010904//EN"
 "http://www.w3.org/TR/2001/REC-SVG-20010904/DTD/svg10.dtd">
<svg version="1.0" xmlns="http://www.w3.org/2000/svg"
 width="5302.000000pt" height="2102.000000pt" viewBox="0 0 5302.000000 2102.000000"
 preserveAspectRatio="xMidYMid meet">

<g transform="translate(0.000000,2102.000000) scale(0.100000,-0.100000)"
fill="#000000" stroke="none">
<path d="M0 10510 l0 -10510 26510 0 26510 0 0 10510 0 10510 -26510 0 -26510
0 0 -10510z m10141 8949 c205 -20 401 -76 594 -168 87 -42 564 -314 1750
-1001 160 -92 391 -226 515 -297 399 -231 939 -543 1165 -673 121 -70 364
-210 540 -312 496 -286 936 -540 1460 -843 264 -152 590 -340 725 -418 135
-77 283 -166 330 -198 425 -291 681 -721 740 -1244 8 -73 10 -1127 8 -3870
l-3 -3770 -27 -121 c-96 -429 -310 -765 -648 -1018 -129 -97 -109 -85 -700
-426 -541 -312 -823 -475 -1325 -765 -327 -189 -576 -333 -905 -522 -124 -72
-430 -248 -680 -393 -250 -144 -849 -490 -1330 -768 -1204 -694 -1443 -833
-1455 -842 -25 -20 -225 -114 -307 -146 -199 -76 -380 -108 -603 -108 -248 1
-449 44 -687 147 -103 44 -502 268 -1183 665 -33 19 -395 228 -805 465 -410
236 -788 455 -840 485 -52 30 -372 214 -710 410 -338 195 -671 387 -740 427
-69 40 -170 98 -225 130 -55 32 -392 227 -750 433 -357 207 -782 451 -942 544
-161 92 -330 195 -375 227 -423 303 -668 733 -718 1261 -8 81 -10 1223 -8
3845 l3 3730 22 110 c72 355 210 626 441 867 157 164 268 245 572 420 91 52
503 290 915 528 413 238 809 467 880 508 72 41 434 251 805 465 371 215 731
422 800 462 128 74 852 492 1430 825 264 153 566 327 860 497 19 12 122 71
229 133 224 130 335 184 478 234 234 81 470 109 704 85z m12029 -4779 c582
-40 1050 -146 1395 -315 164 -80 262 -145 365 -242 188 -177 273 -364 274
-603 0 -97 -4 -124 -24 -174 -29 -76 -95 -147 -169 -183 l-56 -28 -350 0
c-344 0 -351 0 -392 23 -63 33 -106 81 -169 189 -143 247 -199 312 -311 365
-91 43 -190 50 -808 51 -672 2 -806 -9 -935 -74 -70 -35 -133 -96 -167 -162
-37 -70 -39 -177 -5 -251 33 -72 134 -166 231 -214 184 -92 356 -134 981 -238
655 -108 782 -138 1056 -245 361 -142 625 -299 810 -483 155 -155 234 -278
294 -458 28 -85 29 -92 15 -121 -20 -41 -19 -45 6 -16 21 23 21 23 15 2 -4
-12 -2 -24 4 -28 6 -4 10 -17 9 -28 0 -12 0 -26 1 -32 2 -5 4 -23 5 -40 0 -16
4 -50 9 -75 5 -34 4 -41 -4 -30 -9 12 -10 10 -4 -10 10 -34 14 -206 5 -191 -5
7 -8 -12 -8 -41 1 -29 -3 -71 -8 -93 -7 -37 -8 -38 -15 -15 -7 21 -8 22 -9 5
-1 -22 -41 -34 -41 -13 0 6 -3 8 -6 5 -4 -4 -1 -13 5 -21 7 -8 8 -17 3 -19 -4
-3 -8 -25 -9 -49 0 -32 1 -35 4 -10 2 17 8 32 14 32 5 0 9 9 9 20 0 12 7 20
16 20 14 0 14 -3 4 -15 -7 -8 -9 -15 -6 -15 4 0 0 -10 -8 -22 -20 -28 -20 -50
-1 -24 8 11 15 15 15 8 0 -6 -11 -23 -25 -38 -14 -15 -25 -34 -24 -43 0 -11 3
-8 9 7 5 12 12 22 15 22 3 0 -2 -16 -10 -36 -8 -20 -15 -39 -15 -41 0 -3 -7
-3 -14 0 -11 4 -13 1 -9 -11 6 -15 3 -14 -16 2 -17 15 -24 17 -34 7 -8 -8 -9
-14 -1 -19 16 -10 37 -53 29 -60 -4 -4 -12 -7 -17 -7 -6 0 -13 -6 -16 -14 -3
-10 0 -11 9 -5 16 9 -22 -43 -63 -88 -16 -16 -28 -33 -28 -37 0 -5 -17 -7 -38
-5 -38 3 -39 2 -37 -29 3 -41 -38 -88 -58 -67 -10 10 -8 12 8 6 15 -6 17 -4 8
5 -16 16 -36 1 -30 -22 3 -11 1 -19 -3 -19 -5 0 -15 -6 -22 -12 -35 -33 -61
-52 -54 -40 4 6 2 12 -4 12 -6 0 -8 5 -4 12 4 7 3 8 -5 4 -6 -4 -9 -12 -6 -17
7 -11 -8 -12 -19 -1 -4 4 -18 7 -31 7 -20 1 -22 -3 -20 -35 2 -29 -1 -38 -21
-47 -17 -8 -24 -8 -28 1 -2 6 -5 4 -5 -5 -1 -15 -65 -49 -94 -49 -8 0 -17 -5
-19 -11 -2 -6 -16 -11 -31 -11 -15 0 -24 -4 -21 -9 3 -5 0 -9 -5 -9 -6 0 -11
5 -11 10 0 6 -4 10 -10 10 -5 0 -7 -6 -4 -14 4 -10 -2 -12 -23 -9 -23 4 -25 2
-13 -7 13 -10 12 -11 -3 -6 -10 3 -26 6 -35 6 -15 0 -15 2 -2 11 13 9 13 10 0
8 -8 -1 -23 1 -32 5 -9 4 -25 3 -35 -3 -15 -9 -13 -10 12 -6 17 3 23 2 15 -2
-11 -4 -5 -10 20 -20 32 -12 33 -13 5 -8 -16 3 -39 8 -50 11 -16 4 -17 3 -5
-5 13 -10 13 -11 0 -11 -13 0 -13 -2 -1 -9 19 -12 -23 -24 -85 -25 -23 -1 -40
-4 -38 -8 7 -11 -47 -19 -141 -20 -53 -1 -93 -6 -97 -12 -4 -6 -52 -12 -120
-13 -62 -1 -143 -4 -179 -6 -37 -3 -73 -1 -80 4 -9 5 19 9 71 10 l85 2 -80 7
c-44 4 -101 12 -126 19 -25 7 -59 11 -75 8 -22 -3 -18 -5 16 -7 43 -2 44 -2
13 -10 -38 -9 -133 -1 -133 11 0 5 8 9 18 10 9 0 12 3 6 5 -5 2 -28 -2 -50
-10 l-39 -14 75 -8 c74 -8 74 -9 30 -15 l-45 -6 58 -1 c32 -1 57 2 57 8 0 6
11 10 25 10 14 0 25 -4 25 -9 0 -5 12 -11 28 -13 15 -2 -239 -3 -565 -4 -362
-1 -590 2 -587 8 3 5 25 7 48 4 35 -5 37 -5 16 5 -14 6 -41 8 -60 4 -47 -9
-223 -14 -234 -8 -4 3 -3 8 3 12 5 4 -13 7 -42 8 -42 1 -46 -1 -22 -7 25 -6
21 -8 -25 -9 -41 0 -51 2 -40 10 12 8 8 10 -17 7 -18 -3 -30 -1 -27 4 7 11
-14 10 -54 -1 -23 -7 -48 -6 -85 4 -98 27 -104 28 -87 15 13 -9 12 -10 -5 -6
-11 3 -37 8 -57 12 -21 3 -35 10 -32 15 3 5 -1 9 -8 9 -10 0 -9 3 2 11 12 8
10 9 -7 4 -14 -4 -23 -2 -23 5 0 6 -5 8 -11 5 -6 -5 -4 -12 8 -21 24 -18 3
-18 -23 1 -12 8 -23 12 -26 10 -3 -3 -22 1 -44 9 -37 14 -38 14 -9 13 17 0 44
3 60 7 22 6 26 5 15 -3 -19 -14 -4 -13 39 3 31 11 25 12 -66 12 -56 -1 -96 -4
-90 -8 18 -12 1 -9 -28 4 -14 6 -25 15 -25 20 0 5 -4 7 -9 4 -11 -7 -41 3 -41
14 0 4 12 11 28 15 l27 7 -26 13 c-14 8 -36 11 -49 8 l-24 -6 24 -9 c12 -5 21
-11 18 -14 -9 -8 -58 18 -52 28 4 6 -8 8 -27 6 -33 -3 -34 -2 -33 34 0 20 -4
34 -9 31 -5 -3 -13 0 -17 7 -4 7 -15 10 -25 7 -9 -4 -14 -11 -10 -16 3 -5 0
-13 -6 -17 -8 -5 -9 -3 -4 6 6 10 4 12 -8 7 -17 -6 -41 15 -30 27 4 4 -9 22
-30 41 -20 18 -39 30 -42 25 -5 -8 34 -45 58 -53 7 -2 9 -8 4 -12 -4 -5 -19 2
-33 16 -14 13 -29 23 -32 22 -4 -2 -8 2 -8 7 -1 6 -2 16 -3 23 -1 8 -4 8 -10
-2 -8 -12 -12 -12 -25 -2 -9 7 -13 18 -9 24 4 6 0 8 -9 4 -11 -4 -28 8 -52 35
-32 36 -48 67 -28 54 4 -2 7 7 6 22 0 18 -6 26 -22 27 -12 1 -19 -2 -16 -7 3
-4 1 -8 -5 -8 -6 0 -8 -7 -5 -15 4 -8 10 -15 15 -15 4 0 6 7 3 15 -4 8 -1 15
5 15 14 0 15 -27 1 -35 -12 -8 -81 55 -74 67 3 4 -1 8 -8 8 -9 0 -9 3 2 10 14
9 13 11 -10 14 -18 2 -16 19 3 22 9 1 15 -2 12 -6 -3 -5 -1 -11 5 -15 6 -4 8
-11 5 -16 -4 -5 -2 -9 3 -9 5 0 9 13 8 28 -1 24 -5 28 -28 28 -14 -1 -30 -4
-34 -8 -4 -4 -13 -3 -20 3 -10 8 -11 16 -3 30 8 15 6 19 -6 19 -10 0 -14 -5
-10 -12 4 -7 -3 -2 -15 11 -11 13 -18 31 -15 38 3 8 5 19 5 24 0 13 27 11 36
-2 8 -14 -16 -30 -31 -21 -5 3 -4 -1 2 -10 7 -8 9 -19 5 -24 -4 -4 0 -3 9 4 9
6 18 10 20 7 3 -2 5 12 4 32 0 49 -24 64 -55 33 -22 -22 -23 -22 -33 -4 -6 10
-10 36 -8 57 2 34 -1 38 -17 33 -14 -5 -22 2 -34 28 -9 19 -14 43 -11 55 3 12
-2 27 -12 37 -9 9 -14 23 -11 31 3 8 6 21 6 29 0 9 3 13 8 10 4 -2 8 21 9 52
0 32 -1 46 -3 32 -10 -56 -15 -70 -25 -70 -7 0 -9 13 -4 36 3 20 3 34 -2 31
-4 -3 -9 11 -10 32 l-2 36 14 -30 c11 -25 14 -26 14 -9 1 11 -6 35 -15 53 -10
21 -14 44 -10 64 11 57 13 72 15 92 l2 20 8 -20 c5 -12 3 -33 -5 -54 -15 -35
-19 -90 -7 -77 4 4 13 -8 20 -26 l13 -33 -6 35 c-4 19 -12 38 -18 42 -8 5 -7
16 3 40 15 37 23 128 10 106 -15 -23 -10 2 7 33 10 20 21 29 30 25 9 -3 12 -1
9 4 -3 6 -2 10 4 10 5 0 13 -4 16 -10 9 -14 745 -14 745 0 0 7 -121 10 -370
10 -239 -1 -376 2 -387 9 -15 8 -15 10 -2 11 8 0 20 -5 27 -12 7 -7 12 -8 12
-2 0 5 -5 15 -11 21 -17 17 19 46 50 38 19 -4 22 -3 11 4 -12 8 -8 10 15 10
17 0 57 5 90 11 33 5 146 11 250 12 156 1 197 -2 229 -16 44 -18 58 -20 36 -5
-12 8 -9 9 10 4 14 -3 31 -7 38 -7 6 -1 12 -5 12 -10 0 -5 6 -8 13 -7 25 3 37
-1 37 -15 0 -14 29 -30 38 -21 3 3 -1 5 -8 5 -7 0 -11 2 -8 5 13 13 40 -11 62
-56 24 -47 24 -48 5 -54 -11 -4 -17 -11 -14 -16 4 -5 14 -5 27 2 12 7 18 7 14
1 -3 -6 -3 -12 1 -14 5 -1 21 -21 38 -43 24 -33 30 -49 29 -92 0 -29 3 -53 6
-53 10 0 28 50 20 55 -5 3 -11 -1 -13 -7 -4 -9 -6 -10 -6 -1 -2 26 20 22 37
-6 9 -17 20 -31 25 -31 4 0 7 -6 7 -12 -1 -7 -10 -2 -20 11 -14 16 -20 19 -20
8 0 -8 -6 -17 -12 -20 -10 -3 -10 -7 1 -20 14 -18 41 -23 41 -8 0 5 7 12 16
15 8 3 12 2 9 -4 -16 -26 -13 -56 7 -77 22 -24 12 -33 -11 -10 -11 10 -13 9
-9 -3 3 -9 16 -14 33 -13 16 1 35 -3 42 -9 9 -7 13 -7 13 1 0 17 25 13 50 -9
13 -11 19 -20 15 -20 -5 0 -17 7 -27 17 -17 15 -18 15 -18 0 0 -10 -8 -17 -17
-18 -14 0 -15 -2 -3 -6 8 -4 20 -12 25 -20 11 -15 49 -18 84 -7 19 5 22 4 16
-6 -6 -10 -4 -12 9 -7 9 4 28 0 42 -9 13 -9 46 -17 73 -17 37 -1 48 -4 44 -14
-4 -11 1 -12 23 -6 33 9 222 9 231 -1 12 -12 -9 -21 -65 -28 l-57 -6 60 3 c89
6 188 5 208 -1 9 -3 17 -1 17 5 0 7 -26 11 -67 11 -36 0 -64 3 -61 6 10 9 608
10 608 0 0 -5 -85 -7 -199 -4 -187 5 -247 0 -206 -16 9 -3 29 -5 43 -5 24 1
23 3 -8 10 -22 5 -4 6 50 3 160 -10 686 -11 655 -2 -16 5 -43 8 -60 7 -16 0
-46 0 -65 1 -27 1 -31 3 -15 9 23 9 111 5 175 -9 65 -13 84 -10 25 5 l-50 13
110 3 c61 2 162 3 225 3 64 -1 118 3 121 9 4 5 12 8 19 5 7 -2 -1 -11 -18 -19
l-32 -16 50 -1 c27 0 52 3 55 8 4 6 -8 8 -27 5 -22 -4 -27 -3 -15 3 10 4 18
12 17 17 -1 6 16 15 37 20 21 6 48 16 60 23 16 9 24 9 29 0 4 -6 3 -8 -4 -4
-6 3 -13 2 -17 -3 -6 -10 27 -7 44 4 5 3 12 1 16 -5 8 -13 25 -13 25 1 0 5 -4
8 -9 4 -5 -3 -12 -1 -16 4 -3 6 -12 8 -20 4 -8 -3 -15 1 -15 8 0 7 3 9 7 6 3
-4 13 -1 21 6 9 6 13 7 9 1 -3 -6 -1 -11 6 -11 7 0 13 8 13 18 0 10 -5 15 -11
12 -5 -4 1 6 14 20 14 15 27 25 30 22 2 -3 13 13 23 35 18 39 34 57 21 23 -4
-11 -3 -14 5 -9 7 4 12 13 12 19 0 7 9 18 20 25 13 8 20 9 20 1 0 -6 7 -17 15
-25 19 -20 19 -5 1 22 -8 11 -13 29 -11 40 2 10 4 21 4 24 1 3 5 0 9 -7 4 -6
7 12 8 40 0 29 -1 40 -3 25 -3 -16 -8 -28 -14 -28 -5 0 -12 -18 -15 -39 -4
-27 -12 -41 -26 -44 -15 -4 -17 -3 -8 8 6 7 10 17 9 21 -1 5 -1 20 0 34 1 20
3 22 11 10 6 -10 8 4 6 44 -2 40 -8 63 -20 71 -9 7 -16 21 -16 31 0 11 -8 31
-17 44 -19 27 -19 27 3 51 13 14 13 18 0 28 -13 11 -15 9 -11 -7 5 -29 -18
-22 -65 20 -22 20 -40 34 -40 31 0 -3 -7 0 -15 7 -12 10 -13 16 -3 29 12 14
11 14 -5 2 -15 -12 -27 -10 -96 17 -159 63 -312 102 -861 217 -587 123 -1120
259 -1485 379 -608 201 -820 428 -922 986 -12 67 -17 146 -17 270 1 201 14
268 83 416 122 259 377 473 737 617 292 118 634 189 1004 210 138 8 629 6 760
-3z m3695 -20 c63 -31 117 -85 152 -152 l28 -53 0 -1497 c0 -824 3 -1498 8
-1498 4 0 7 -9 7 -19 0 -11 5 -21 11 -23 7 -2 12 -23 12 -47 0 -23 3 -38 7
-32 4 7 11 2 18 -13 7 -16 8 -28 2 -31 -6 -4 -10 2 -10 11 0 29 -8 12 -14 -31
-4 -28 -3 -36 4 -25 7 12 10 8 10 -15 0 -17 -5 -36 -12 -43 -9 -9 -9 -12 0
-12 7 0 12 5 12 12 0 9 3 9 12 0 7 -7 19 -12 27 -12 11 0 10 4 -6 15 -11 8
-23 28 -25 45 -6 43 8 48 16 5 7 -33 22 -53 33 -41 3 3 -2 12 -11 21 -9 9 -16
24 -15 33 0 14 2 14 6 2 4 -8 17 -29 30 -46 12 -17 23 -36 23 -42 0 -6 3 -12
8 -14 4 -2 29 -27 56 -55 36 -39 46 -56 38 -65 -8 -10 -4 -13 16 -14 15 -1 21
1 15 3 -7 3 -13 9 -13 14 0 6 16 -2 35 -17 19 -14 33 -30 30 -34 -3 -4 2 -11
11 -14 9 -4 13 -2 8 5 -4 7 -2 10 5 8 27 -9 9 -24 -29 -25 -43 0 -53 11 -19
21 21 7 16 21 -11 27 -11 2 -15 -7 -16 -32 -1 -36 0 -36 43 -36 24 0 43 4 43
8 0 8 45 4 73 -8 15 -5 16 -9 5 -16 -9 -7 -3 -8 17 -4 23 5 26 4 15 -4 -13 -9
-12 -11 5 -9 11 1 29 0 40 0 19 -2 18 -3 -3 -11 -13 -6 -32 -6 -48 0 -38 15
-43 11 -9 -6 30 -15 30 -15 3 -11 -19 3 -25 0 -21 -10 6 -16 8 -16 41 1 31 16
104 32 85 19 -7 -5 17 -9 59 -9 45 -1 74 -6 76 -13 2 -6 16 -11 30 -10 20 0
23 2 10 7 -16 7 706 6 835 -1 31 -1 57 0 57 4 0 7 69 24 83 21 16 -4 47 19 47
36 0 14 -5 12 -21 -8 -14 -18 -22 -21 -26 -12 -4 11 -9 10 -26 -1 -28 -17 -77
-30 -77 -19 0 8 89 38 103 34 4 -1 15 4 23 12 20 21 44 9 45 -23 2 -24 2 -24
6 -3 3 13 -1 30 -7 38 -13 14 -4 19 29 15 8 -2 10 3 5 11 -4 7 -4 10 1 6 4 -4
16 -3 25 2 14 7 18 6 16 -5 -3 -19 -16 -32 -16 -15 0 10 -3 10 -15 0 -8 -6
-20 -8 -26 -4 -7 4 -9 3 -5 -4 3 -6 19 -9 34 -7 15 2 30 4 35 4 4 1 5 12 3 26
-5 29 18 57 39 48 11 -4 13 -1 9 12 -5 13 -3 16 7 13 8 -3 13 -11 12 -17 -4
-18 40 -8 65 15 18 16 24 34 27 74 2 33 9 58 20 69 10 9 15 11 12 6 -3 -6 3
-12 14 -12 10 -1 19 4 19 10 0 7 4 6 10 -3 7 -11 8 -7 6 15 -2 17 -9 29 -15
27 -13 -2 9 55 34 90 8 13 15 31 15 41 0 19 1 19 27 1 l28 -17 -19 27 c-13 21
-16 37 -11 65 4 20 11 707 14 1526 l6 1490 24 50 c32 63 93 124 156 156 l50
24 380 0 380 0 50 -25 c72 -35 138 -105 164 -173 l21 -58 0 -1369 c0 -1175 -2
-1386 -15 -1486 -9 -65 -20 -123 -26 -130 -5 -6 -7 -19 -3 -28 4 -9 1 -16 -6
-16 -7 0 -10 -7 -6 -15 7 -20 -3 -47 -16 -39 -5 3 -6 19 -3 34 6 30 -9 50 -19
25 -6 -18 12 -75 25 -75 5 0 3 -15 -5 -34 -8 -19 -12 -37 -8 -40 3 -3 0 -6 -7
-6 -7 0 -10 -4 -6 -9 6 -11 -15 -61 -26 -61 -4 0 -5 -10 -2 -22 4 -23 4 -23
-10 1 -10 17 -16 20 -22 11 -6 -9 -9 -9 -16 1 -6 10 -9 8 -9 -9 0 -13 4 -21 8
-18 9 5 8 -41 -1 -84 -3 -14 -8 -38 -12 -53 -3 -17 -10 -25 -17 -21 -6 4 -9 1
-6 -7 3 -8 -2 -20 -11 -27 -13 -11 -13 -12 -1 -7 10 4 9 2 -2 -8 -10 -8 -15
-17 -11 -20 3 -4 1 -7 -5 -7 -7 0 -11 -3 -10 -7 3 -12 -32 -81 -48 -94 -8 -6
-14 -17 -14 -23 -1 -18 -88 -117 -92 -104 -5 13 -28 2 -28 -13 0 -6 5 -7 10
-4 18 11 10 -4 -16 -30 -14 -14 -27 -34 -29 -43 -1 -9 -10 -16 -19 -16 -8 1
-14 -2 -11 -6 9 -15 -23 -37 -49 -35 -14 2 -26 0 -27 -3 0 -4 -2 -15 -4 -24
-3 -14 0 -15 15 -5 10 6 16 15 14 19 -3 4 0 8 5 8 20 0 11 -17 -25 -48 -30
-26 -43 -30 -80 -28 -33 2 -43 -1 -40 -10 5 -14 -15 -64 -26 -64 -12 0 -10 28
2 35 6 3 10 11 10 17 0 7 -6 6 -15 -2 -8 -7 -15 -21 -15 -31 0 -12 -7 -19 -18
-19 -11 0 -32 -11 -48 -25 -16 -14 -22 -23 -13 -20 11 4 15 0 14 -12 -1 -24
-14 -43 -28 -43 -6 0 -2 7 9 15 17 13 16 13 -13 3 -22 -8 -29 -16 -23 -23 7
-8 1 -16 -18 -25 -15 -7 -32 -13 -38 -12 -7 1 -14 -5 -18 -13 -3 -9 -10 -14
-15 -10 -6 3 -8 12 -5 20 7 17 62 37 77 28 6 -3 7 -1 3 5 -11 17 -66 15 -72
-3 -4 -8 -12 -15 -20 -15 -17 0 -18 -22 -1 -39 10 -11 8 -11 -10 -2 -16 8 -29
9 -42 1 -27 -14 -51 -13 -31 1 13 9 13 10 0 6 -8 -2 -16 -13 -18 -26 l-3 -21
36 20 c20 11 41 18 46 15 15 -10 0 -25 -18 -18 -12 5 -14 3 -8 -7 6 -10 4 -12
-9 -7 -10 4 -24 -1 -36 -13 -11 -11 -29 -20 -39 -20 -11 0 -22 -4 -25 -9 -3
-5 -16 -7 -29 -4 -16 3 -18 2 -9 -5 11 -7 9 -10 -7 -15 -13 -3 -19 -1 -15 5 4
6 1 8 -7 6 -8 -3 -13 -10 -12 -16 2 -6 -4 -9 -12 -6 -18 7 -18 9 -1 26 11 12
8 14 -23 15 -29 1 -32 -1 -14 -8 23 -8 25 -35 4 -49 -17 -10 -51 -1 -51 13 0
6 -3 7 -6 4 -4 -4 -2 -13 4 -20 9 -10 9 -14 -1 -14 -6 0 -32 -6 -57 -13 -25
-6 -63 -15 -85 -20 -22 -4 -49 -10 -60 -13 -11 -2 -14 -2 -6 0 12 4 12 6 0 14
-9 6 5 9 40 9 30 0 52 2 50 4 -9 8 -169 15 -164 7 3 -6 -272 -10 -647 -11
-608 -1 -767 -6 -799 -26 -16 -10 -69 -11 -69 -1 0 4 8 7 17 7 33 0 123 25
123 33 0 5 -9 7 -20 3 -11 -3 -30 -9 -42 -13 -13 -4 -19 -2 -15 4 4 7 -3 10
-18 9 -29 -1 -33 -13 -7 -19 9 -2 2 -3 -17 -1 -19 2 -37 7 -40 12 -3 5 -19 4
-35 -3 -20 -8 -25 -15 -16 -20 7 -4 16 -2 20 5 6 9 12 10 26 1 17 -10 17 -11
-6 -12 -39 -3 -74 2 -86 12 -6 5 -15 5 -19 1 -5 -4 -5 -1 -1 6 4 6 14 12 23
12 9 0 13 3 10 6 -4 4 -20 1 -36 -6 -43 -18 -71 -5 -73 33 l-1 32 -4 -33 c-4
-29 -7 -32 -26 -26 -12 4 -25 11 -28 17 -4 5 -12 6 -19 2 -9 -6 -11 -4 -5 5 6
9 1 10 -16 5 -19 -5 -21 -4 -9 5 13 9 12 11 -5 9 -11 -1 -29 0 -40 1 -17 1
-16 3 6 11 27 10 99 -12 99 -31 0 -6 5 -10 10 -10 25 0 6 22 -32 39 -50 21
-110 36 -90 23 20 -13 -27 -24 -47 -11 -12 8 -10 9 9 4 22 -5 23 -5 7 5 -10 7
-27 10 -37 7 -16 -4 -18 0 -15 24 3 22 -1 29 -13 29 -14 0 -14 1 1 13 16 11
15 12 -9 14 -20 1 -24 -1 -13 -9 10 -7 7 -8 -12 -4 -18 4 -31 0 -40 -10 -7 -8
-8 -14 -3 -12 11 3 57 -22 52 -28 -3 -2 -28 8 -57 22 -29 14 -51 28 -47 31 3
3 11 1 18 -5 9 -7 17 -6 25 3 10 11 5 13 -25 10 -25 -2 -51 5 -82 23 -68 39
-73 44 -58 55 9 6 8 7 -5 3 -32 -10 -58 11 -52 44 3 16 0 32 -6 36 -8 5 -10
-1 -7 -20 6 -32 -5 -42 -23 -19 -8 9 -9 14 -2 10 7 -4 10 -1 9 10 -3 20 -21
28 -31 14 -4 -7 1 -9 12 -5 14 5 15 4 4 -4 -15 -11 -29 -1 -110 74 -14 13 -28
24 -32 24 -12 0 -2 40 14 58 16 17 15 18 -23 17 -41 -1 -51 11 -46 58 2 19 -2
22 -30 22 -19 -1 -37 -5 -41 -10 -5 -4 -2 -5 4 -1 9 5 11 2 7 -9 -6 -13 -9
-12 -23 7 -9 13 -14 28 -12 33 20 56 19 61 -8 60 -14 0 -31 -4 -37 -8 -7 -4
-17 0 -23 7 -8 10 -9 16 -1 21 15 9 12 25 -6 25 -9 0 -12 -5 -8 -12 5 -7 3 -8
-5 -4 -7 5 -10 10 -7 14 3 3 -1 10 -9 16 -9 7 -12 19 -9 34 7 23 28 30 40 11
8 -14 -16 -30 -31 -21 -5 3 -3 -2 4 -12 14 -17 16 -17 28 1 18 23 13 53 -10
67 -14 9 -20 7 -28 -6 -6 -10 -16 -18 -24 -18 -15 0 -45 37 -45 55 1 5 8 -2
16 -17 8 -16 17 -28 19 -28 8 0 -16 54 -27 61 -12 8 -1 49 13 49 6 0 8 -8 5
-17 -3 -10 -2 -24 3 -32 6 -9 8 -2 7 20 -1 29 -6 34 -26 35 -14 1 -32 -3 -40
-9 -8 -6 -12 -7 -7 -2 4 4 0 17 -10 27 -9 11 -11 18 -5 18 7 0 12 4 12 10 0 5
-8 6 -17 3 -16 -6 -16 -5 -5 10 8 9 11 21 8 26 -4 5 -1 13 5 16 7 5 3 12 -10
22 -12 8 -18 19 -15 25 4 7 9 6 14 -2 5 -9 9 -8 13 3 4 10 -2 14 -23 13 -16
-1 -32 -5 -37 -10 -4 -5 -3 -6 4 -2 7 3 14 -2 18 -14 3 -11 9 -20 13 -20 4 0
8 -11 8 -25 2 -20 -1 -23 -11 -15 -8 6 -11 19 -8 27 4 11 2 14 -5 9 -8 -5 -10
-1 -5 10 4 12 3 15 -5 10 -7 -4 -13 -2 -13 3 -2 17 -4 23 -27 73 -11 25 -18
57 -15 70 4 19 3 20 -7 8 -9 -12 -10 -11 -5 9 5 15 3 21 -3 17 -7 -4 -9 6 -6
31 4 25 2 34 -4 25 -6 -10 -13 0 -21 35 -7 26 -14 53 -16 60 -2 6 3 14 11 17
9 3 268 6 575 6 371 0 558 3 554 10 -4 6 -203 10 -565 10 l-560 0 -6 24 c-3
14 -3 30 2 37 5 8 3 9 -5 4 -8 -4 -11 -18 -7 -36 3 -16 2 -29 -3 -29 -5 0 -15
37 -22 83 -11 67 -14 347 -14 1512 l0 1430 24 45 c32 62 112 135 174 159 49
19 72 20 422 18 l370 -2 50 -25z m7926 14 c555 -95 995 -531 1095 -1084 23
-127 23 -345 0 -465 -87 -448 -378 -812 -795 -994 -78 -35 -221 -77 -288 -86
-78 -10 -80 -14 -26 -39 76 -36 182 -108 256 -176 78 -72 201 -226 192 -240
-4 -6 -1 -9 7 -8 7 2 12 -3 11 -9 -2 -7 1 -13 7 -13 14 0 91 -120 77 -121 -7
0 -1 -5 12 -10 20 -8 22 -11 10 -26 -12 -15 -12 -16 3 -10 10 3 20 1 24 -6 4
-7 4 -9 -1 -5 -4 4 -14 3 -21 -3 -17 -14 -29 8 -14 26 9 11 9 15 1 15 -18 0
-25 -28 -11 -45 6 -8 9 -18 7 -22 -3 -5 3 -10 14 -10 10 -1 19 3 19 8 0 6 -4
7 -10 4 -5 -3 -10 -1 -10 4 0 6 10 9 23 7 12 -1 22 -7 22 -12 0 -5 3 -13 6
-19 3 -5 5 -29 4 -52 -1 -29 3 -43 12 -43 14 0 13 26 -1 48 -5 8 -3 19 3 25 9
9 11 8 5 -6 -3 -10 -3 -17 2 -15 5 2 10 -1 12 -7 2 -5 13 -20 24 -32 12 -13
16 -23 10 -23 -6 0 -16 8 -21 18 -9 15 -10 15 -11 0 0 -9 -4 -18 -10 -20 -12
-4 -1 -48 12 -48 6 0 8 9 5 20 -3 11 -1 20 4 20 5 0 9 -10 10 -22 l0 -23 10
23 c5 13 13 20 19 17 6 -4 8 -10 5 -15 -3 -5 3 -13 12 -19 10 -6 12 -11 6 -11
-7 0 -13 -5 -13 -10 0 -6 6 -10 14 -8 8 2 14 0 13 -4 -1 -4 7 -14 18 -22 20
-15 20 -15 -2 -11 -13 2 -23 -1 -23 -7 0 -5 7 -8 15 -4 15 5 55 -29 55 -47 0
-5 14 -27 31 -48 17 -21 24 -37 16 -33 -8 3 -20 15 -26 27 -11 21 -11 21 -5
-3 6 -24 28 -44 48 -45 5 0 11 -7 13 -15 4 -13 3 -13 -7 0 -10 13 -11 12 -6
-3 3 -10 2 -26 -3 -36 -6 -11 -6 -22 1 -32 8 -11 9 -11 4 4 -3 9 -1 17 4 17 6
0 10 8 10 18 1 13 6 10 25 -13 14 -16 25 -34 25 -38 0 -5 7 -15 15 -24 14 -14
14 -17 0 -33 -13 -14 -14 -23 -6 -39 13 -23 14 -34 3 -27 -4 2 -8 -3 -8 -13 0
-14 8 -17 36 -16 19 1 36 3 38 4 8 4 17 0 17 -9 0 -5 8 -18 17 -29 15 -18 15
-21 0 -33 -11 -9 -14 -10 -8 -1 4 7 2 21 -4 30 -10 16 -11 16 -6 1 3 -9 0 -19
-7 -22 -19 -7 12 -25 33 -19 15 4 18 1 13 -16 -7 -26 -28 -27 -43 -3 -9 15
-10 14 -8 -7 4 -33 36 -52 49 -28 6 9 16 17 23 17 16 0 51 -49 42 -58 -3 -3
-6 0 -6 7 0 7 -5 9 -12 5 -7 -4 -8 -3 -4 4 5 8 1 10 -9 5 -9 -3 -13 -9 -8 -12
5 -3 9 -22 8 -41 -1 -31 2 -36 21 -36 14 0 20 5 17 14 -5 11 -7 11 -15 0 -6
-9 -7 -5 -3 11 5 16 4 21 -4 17 -6 -4 -11 -2 -11 3 0 19 43 5 59 -19 10 -15
11 -21 4 -16 -7 4 -13 2 -13 -3 0 -6 6 -11 14 -11 9 0 12 -11 11 -33 -2 -19 1
-40 7 -48 7 -10 8 -9 4 7 -4 14 -2 21 8 21 9 0 13 -4 11 -8 -3 -3 2 -13 11
-20 16 -13 48 -69 40 -69 -2 0 -14 16 -26 36 -12 19 -25 33 -27 30 -3 -3 2
-17 11 -32 10 -14 15 -29 11 -32 -3 -4 -10 0 -14 7 -6 9 -11 10 -15 2 -4 -6
-12 -9 -17 -6 -5 4 -9 2 -9 -4 0 -6 15 -10 33 -9 57 1 60 0 53 -29 -6 -27 -6
-27 9 -9 8 11 15 17 15 14 0 -4 3 -15 6 -25 5 -15 4 -16 -6 -3 -10 13 -11 12
-6 -3 7 -22 -3 -45 -13 -28 -4 6 -7 -12 -7 -39 0 -27 3 -47 7 -44 4 2 10 -5
14 -16 8 -24 25 -27 25 -4 0 8 -5 12 -11 8 -8 -4 -9 4 -5 27 7 32 6 33 -9 15
-10 -14 -15 -16 -14 -5 1 19 17 57 19 44 1 -5 6 -1 11 10 8 16 8 15 4 -8 -3
-16 -2 -26 2 -24 10 7 9 -73 -1 -95 -4 -10 -12 -15 -18 -12 -5 3 -8 -2 -6 -11
2 -10 -2 -20 -9 -22 -9 -3 -10 4 -2 29 11 41 11 41 -1 33 -5 -3 -10 -18 -10
-32 0 -18 -4 -24 -15 -20 -8 4 -27 0 -42 -8 -25 -13 -26 -15 -6 -15 12 0 23 5
25 12 3 7 10 8 17 4 11 -7 11 -10 0 -17 -18 -11 -928 -10 -954 1 -17 7 -17 9
-2 9 32 2 17 16 -19 18 -33 2 -34 1 -18 -12 11 -8 14 -15 7 -15 -6 0 -18 7
-26 15 -12 11 -17 12 -21 2 -5 -9 -7 -9 -12 0 -3 7 -11 10 -18 7 -21 -8 -45
23 -40 51 4 21 0 25 -21 26 -14 1 -31 2 -37 3 -17 1 -29 31 -22 54 5 14 4 15
-5 2 -9 -12 -13 -12 -19 -2 -7 10 -11 10 -21 -2 -8 -10 -9 -16 -1 -21 5 -3 10
-1 10 5 0 18 20 0 30 -26 6 -15 15 -22 24 -18 9 3 17 -2 21 -15 3 -11 12 -18
19 -15 7 3 13 -2 13 -10 0 -22 -29 -6 -102 58 -31 27 -37 37 -28 47 9 9 5 17
-15 35 -15 13 -22 24 -16 24 6 0 11 10 10 22 -1 18 -7 22 -34 23 -18 0 -36 -3
-39 -9 -3 -5 -1 -6 5 -2 13 8 55 -48 44 -59 -4 -5 -1 -5 7 0 10 6 12 4 6 -5
-6 -9 -4 -11 5 -5 9 6 11 4 5 -5 -5 -9 -4 -11 3 -6 8 5 10 1 5 -10 -5 -14 -8
-13 -24 7 -10 13 -19 30 -19 36 0 7 -6 12 -12 10 -8 -1 -12 6 -10 17 2 10 -1
15 -7 12 -12 -8 -70 74 -64 92 3 6 -1 12 -8 12 -6 0 -18 8 -25 18 -15 19 -18
36 -6 28 4 -2 7 13 7 34 0 21 -2 37 -4 34 -6 -6 -31 17 -31 28 0 6 7 5 15 -2
8 -7 15 -10 15 -6 0 3 0 9 0 13 0 4 -13 9 -30 11 -24 2 -30 -1 -30 -15 0 -15
2 -16 11 -3 8 12 9 9 5 -10 -3 -14 -3 -19 0 -12 5 10 9 10 20 1 8 -6 14 -16
14 -21 0 -6 -7 -4 -17 3 -9 8 -18 13 -21 11 -3 -2 -20 25 -39 60 -30 54 -31
59 -9 33 14 -16 25 -25 26 -18 0 6 -4 15 -10 18 -5 3 -10 11 -10 16 0 6 4 8 8
5 4 -2 8 7 9 22 l2 27 -10 -25 c-10 -24 -11 -24 -25 -6 -8 11 -14 16 -14 10
-1 -5 -10 2 -21 15 -11 13 -17 26 -14 29 3 3 12 -3 20 -14 8 -10 15 -14 15 -8
0 7 -9 22 -21 35 -11 13 -18 18 -14 12 3 -7 1 -13 -4 -13 -6 0 -11 7 -11 15 0
8 -5 15 -12 15 -6 0 -9 3 -5 6 3 3 -4 15 -15 26 -15 15 -17 22 -8 28 17 11 4
44 -14 37 -21 -8 -52 41 -36 57 8 8 10 7 5 -5 -4 -10 -1 -20 5 -24 7 -4 9 3 5
25 -3 17 -1 39 4 48 8 15 5 18 -14 18 -15 0 -21 -5 -18 -13 6 -16 -23 -17 -33
-1 -4 7 -3 8 4 4 7 -4 12 -2 12 3 0 6 -6 11 -13 11 -11 0 -13 17 -12 73 1 39
0 61 -2 47 -3 -14 -9 -30 -14 -36 -5 -6 -6 -14 -2 -18 4 -3 7 -16 8 -27 2 -20
1 -20 -16 2 -23 29 -23 34 -4 53 8 8 15 27 14 43 0 27 -1 27 -16 -10 -12 -30
-18 -35 -29 -26 -18 15 -18 33 0 26 8 -3 16 2 19 14 3 10 1 19 -4 19 -5 0 -9
-6 -9 -12 0 -7 -7 -3 -15 9 -8 12 -12 28 -9 37 3 9 2 16 -4 16 -5 0 -13 -8
-17 -17 -6 -16 -10 -14 -31 12 -13 17 -24 36 -24 43 0 6 -5 12 -11 12 -8 0 -8
4 -2 13 6 6 10 35 10 62 -1 28 -3 42 -5 33 -5 -25 -20 -22 -24 4 -2 14 -11 24
-23 26 -18 2 -18 2 -2 -8 9 -6 17 -18 17 -26 0 -12 -8 -9 -31 10 -17 14 -35
26 -41 26 -6 0 -8 3 -5 7 4 3 -1 12 -11 19 -10 8 -12 13 -4 14 6 0 12 4 12 10
0 5 -6 7 -13 4 -7 -2 -22 4 -32 16 -10 11 -15 20 -11 20 4 0 -37 45 -93 100
-55 55 -105 100 -111 100 -6 0 -8 6 -4 13 4 6 4 9 0 5 -5 -4 -25 4 -46 17 -92
58 -100 59 -666 63 l-522 3 -7 -253 c-3 -139 -5 -477 -3 -751 2 -273 0 -497
-4 -497 -3 0 -4 -10 -2 -22 2 -13 2 -17 -2 -10 -7 15 -24 6 -24 -14 0 -8 4
-13 9 -10 12 8 1 -34 -16 -61 -9 -14 -20 -20 -30 -16 -11 4 -14 3 -9 -6 10
-16 -22 -51 -46 -51 -11 0 -16 -4 -13 -10 4 -6 -1 -7 -11 -3 -11 4 -15 2 -11
-4 8 -13 -17 -25 -37 -17 -8 3 -17 1 -20 -4 -3 -6 -149 -10 -365 -11 -315 -2
-359 0 -364 14 -8 18 -27 20 -27 2 0 -9 -11 -12 -35 -11 -42 4 -87 25 -66 32
7 2 16 0 20 -5 3 -6 22 -10 41 -11 33 -1 34 0 16 14 -11 7 -16 17 -11 21 4 5
10 2 12 -4 4 -10 82 -13 356 -11 l352 2 -340 7 c-187 3 -356 9 -375 12 -19 3
-39 2 -45 -3 -14 -12 -58 -16 -72 -7 -16 10 -17 67 -2 67 6 0 10 -12 9 -27 -3
-42 0 -50 10 -25 10 25 -3 72 -20 72 -5 0 -10 -4 -10 -9 0 -10 -47 -21 -55
-13 -3 3 1 12 7 21 7 9 8 13 4 9 -15 -13 -46 32 -38 55 4 12 4 301 1 642 l-5
620 -1 -623 c0 -343 -3 -626 -6 -629 -7 -7 -12 1124 -12 2912 l0 1360 28 57
c32 65 91 121 151 142 35 12 267 15 1652 15 1436 1 1621 -1 1705 -15z m6264
-8 c63 -29 126 -99 151 -168 18 -52 19 -108 19 -2140 0 -1147 -3 -2084 -7
-2081 -5 2 -8 -8 -9 -24 -1 -27 -1 -27 -9 5 -4 18 -11 36 -15 40 -5 4 -5 -4
-2 -18 4 -14 7 -35 7 -48 0 -13 4 -21 8 -18 5 3 9 -1 9 -9 0 -8 -4 -12 -9 -9
-4 3 -7 -5 -5 -17 1 -12 -3 -24 -10 -26 -8 -3 -10 10 -6 46 2 28 1 51 -4 51
-11 0 -11 -95 -1 -105 4 -4 2 -15 -4 -25 -11 -17 -12 -17 -29 4 -12 13 -18 16
-19 7 0 -10 -3 -11 -14 -2 -17 14 -23 0 -20 -47 1 -28 -1 -32 -20 -30 -12 2
-20 -2 -19 -9 2 -7 -4 -10 -12 -7 -8 4 -15 2 -15 -2 0 -5 -10 -10 -22 -12 -45
-7 -791 -11 -784 -5 3 3 162 6 353 7 l348 0 -315 6 -315 6 356 1 c223 0 363 4
374 11 16 8 14 10 -12 8 -18 -1 -35 -5 -39 -9 -10 -9 -47 -9 -41 1 3 4 -155 4
-351 0 -197 -4 -370 -8 -387 -8 -23 0 -27 -3 -15 -11 11 -7 7 -8 -15 -3 -50
11 -67 23 -60 44 4 12 0 22 -12 29 -10 5 -15 13 -11 17 4 4 14 1 23 -6 9 -7
18 -10 22 -6 10 9 -30 36 -45 31 -8 -3 -23 -5 -33 -5 -11 0 -17 -5 -14 -10 4
-6 11 -8 16 -5 5 4 9 -1 9 -9 0 -9 7 -16 15 -16 8 0 15 -8 15 -17 0 -13 -9 -9
-35 17 -29 28 -32 36 -23 53 13 25 20 89 8 82 -5 -3 -11 3 -13 12 -2 10 -3 6
-1 -9 4 -34 -11 -45 -25 -19 -12 22 -12 119 -1 141 5 8 4 35 0 60 -5 29 -5 47
2 51 7 4 8 15 3 25 -11 27 -17 576 -6 569 6 -3 12 7 14 22 3 20 4 16 6 -14 0
-24 -2 -43 -6 -43 -5 0 -9 -55 -9 -123 l-2 -122 8 90 c4 50 11 126 15 169 8
78 8 79 -13 74 -28 -8 -29 8 -2 17 11 3 20 14 19 23 0 11 -3 12 -6 5 -2 -7
-12 -13 -21 -13 -12 0 -13 3 -4 12 7 7 12 16 12 20 0 4 -520 8 -1156 8 l-1155
0 5 -22 c3 -13 3 -17 0 -10 -9 20 -34 -5 -35 -37 l-1 -26 -8 25 c-6 20 -8 21
-8 5 0 -11 3 -31 7 -45 l7 -25 9 30 c4 17 7 36 6 43 -1 6 3 12 10 12 7 0 9 -8
5 -22 -8 -24 -12 -49 -15 -83 l-2 -20 -9 20 c-8 19 -9 19 -9 -2 -1 -12 -4 -29
-8 -39 -5 -12 -3 -15 6 -9 10 6 11 3 3 -11 -5 -11 -7 -25 -5 -32 4 -9 -2 -11
-20 -7 -29 8 -57 -24 -57 -65 0 -20 2 -22 11 -10 8 11 9 7 5 -19 -3 -18 -7
-41 -7 -50 -1 -9 -5 -2 -8 14 -5 19 -7 -3 -7 -57 1 -47 4 -84 9 -81 4 2 7 0 7
-6 0 -5 -5 -13 -10 -16 -6 -4 -8 -10 -6 -14 3 -4 -12 -7 -32 -6 -35 1 -52 -8
-52 -30 0 -5 5 -3 11 5 10 15 8 -69 -4 -163 -5 -35 -4 -37 9 -20 14 16 14 16
2 -7 -7 -14 -11 -31 -10 -37 2 -8 -3 -10 -12 -7 -20 8 -41 -42 -27 -60 6 -7 6
-17 1 -26 -6 -8 -10 -10 -10 -4 0 6 -8 21 -19 33 l-18 21 0 -24 c0 -15 4 -23
12 -20 21 8 23 -31 4 -67 -10 -19 -18 -30 -19 -26 0 16 -40 -14 -40 -31 1 -16
1 -16 11 1 5 9 14 17 20 17 5 0 2 -11 -8 -24 -10 -13 -24 -21 -32 -18 -10 4
-13 1 -8 -11 9 -25 -16 -39 -39 -22 -19 14 -18 15 4 21 27 8 29 24 2 24 -11 0
-20 -4 -20 -10 0 -5 -9 -10 -20 -10 -11 0 -20 -7 -20 -15 0 -8 8 -15 19 -15
29 0 33 -36 5 -50 -19 -10 -26 -10 -38 -1 -19 16 -100 25 -91 11 3 -6 17 -7
31 -4 36 9 29 -4 -8 -15 l-33 -9 37 1 c20 1 34 5 31 10 -2 4 3 7 12 7 29 0 10
-25 -21 -27 -16 -1 -220 -2 -453 -3 -419 0 -462 3 -433 32 6 6 15 8 19 4 4 -4
2 -10 -5 -14 -6 -5 19 -8 56 -8 44 -1 52 0 22 3 -25 3 -52 11 -62 19 -13 13
-21 13 -38 4 -17 -9 -25 -9 -34 0 -8 8 -6 9 9 4 16 -6 18 -5 9 7 -6 8 -11 28
-9 46 1 21 -2 30 -10 26 -9 -3 -11 4 -7 24 5 24 6 25 12 8 4 -12 7 -1 6 27 -1
27 -2 48 -3 48 -2 0 -8 -21 -15 -47 l-12 -48 -7 35 c-4 27 -7 31 -13 18 -5
-10 -2 -30 8 -48 8 -17 12 -39 9 -48 -6 -15 -4 -15 9 -4 14 11 16 10 11 -8 -5
-19 -7 -20 -21 -7 -8 9 -16 26 -18 39 -1 12 -8 39 -13 58 -6 19 -11 36 -11 37
0 2 9 3 21 3 11 0 18 4 14 10 -3 5 -12 7 -20 3 -10 -3 -15 2 -15 16 0 12 4 21
10 21 5 0 9 21 9 48 0 63 3 82 12 82 4 0 7 10 8 23 1 46 5 57 19 57 8 0 12 -6
9 -13 -3 -8 -1 -20 3 -28 6 -8 9 6 8 38 -1 46 -3 50 -15 35 -13 -15 -13 -15
-4 4 6 12 7 25 3 29 -4 5 -2 6 4 2 6 -3 10 8 11 31 1 21 8 41 18 48 9 7 15 16
12 21 -3 5 -2 24 3 43 l8 35 1 -37 c1 -20 4 -43 7 -52 9 -23 32 3 26 29 -5 18
-6 18 -13 -5 -7 -22 -8 -20 -7 10 1 19 -2 46 -6 59 -8 24 7 51 21 37 4 -4 1
-11 -7 -17 -10 -6 -12 -11 -4 -16 6 -5 13 -15 16 -23 4 -8 5 2 4 23 -1 21 -8
42 -16 47 -8 6 -10 10 -4 10 7 0 12 10 13 23 1 38 4 56 10 55 18 -2 24 3 12
11 -10 6 -11 13 -3 27 10 17 12 15 18 -16 7 -33 8 -34 15 -10 7 24 7 24 8 3 1
-13 6 -23 11 -23 6 0 10 3 10 6 0 12 -24 49 -36 57 -7 4 -11 14 -8 21 5 12 9
11 24 -4 10 -10 20 -26 23 -37 4 -14 5 -14 6 5 0 12 -5 25 -13 28 -12 5 -12
37 1 74 8 21 12 72 5 66 -3 -3 -11 -27 -18 -53 -9 -35 -13 -41 -13 -21 -1 15
8 50 19 78 11 28 18 55 15 59 -7 13 27 104 52 137 18 24 21 25 17 7 -3 -12 -2
-29 3 -37 6 -11 9 1 8 39 0 52 -7 69 -18 43 -3 -8 -6 -5 -6 5 -1 24 28 128 40
143 5 6 7 19 3 28 -3 9 -2 16 4 16 5 0 10 10 10 23 0 12 36 157 80 322 44 165
123 460 176 655 52 195 133 498 180 672 47 175 101 353 119 395 228 518 768
969 1296 1083 81 17 156 19 1346 19 l1260 1 50 -24z m3972 9 c141 -19 349 -71
476 -121 718 -283 1219 -909 1333 -1665 21 -141 30 -680 15 -904 -11 -167 -53
-417 -71 -423 -5 -2 -6 -10 -3 -18 3 -8 0 -20 -6 -28 -6 -7 -8 -16 -4 -19 3
-4 1 -7 -6 -7 -7 0 -11 -6 -8 -12 2 -7 -2 -25 -9 -39 -7 -15 -11 -29 -8 -32 3
-3 1 -14 -4 -24 -10 -17 -11 -17 -18 0 -5 15 -9 16 -15 5 -12 -18 -11 -31 1
-23 6 3 10 -1 10 -10 0 -11 -5 -15 -15 -11 -8 3 -15 1 -15 -4 0 -5 6 -10 14
-12 12 -3 12 -9 -1 -41 -10 -23 -21 -36 -28 -33 -15 5 -45 -24 -46 -45 0 -9
-2 -10 -5 -2 -3 7 -1 20 5 31 7 13 7 19 -2 19 -8 0 -13 -18 -13 -48 0 -27 3
-46 8 -43 4 3 8 9 8 14 0 5 8 23 19 40 15 25 20 28 25 15 4 -11 2 -14 -6 -9
-8 5 -9 2 -5 -10 5 -11 3 -15 -5 -10 -8 5 -9 2 -5 -10 5 -11 3 -15 -5 -10 -8
5 -9 2 -5 -10 4 -11 3 -15 -4 -11 -6 4 -10 1 -8 -6 3 -27 -1 -38 -23 -59 -12
-11 -19 -23 -15 -26 4 -4 2 -13 -4 -21 -7 -7 -20 -28 -29 -46 -10 -17 -24 -31
-32 -29 -8 1 -20 -10 -27 -24 -10 -24 -10 -26 6 -20 17 6 17 5 1 -7 -10 -8
-15 -17 -11 -20 3 -4 -2 -9 -11 -13 -9 -3 -16 -12 -16 -20 0 -7 -17 -31 -38
-54 -22 -22 -38 -41 -36 -43 2 -1 -13 -20 -32 -42 -32 -36 -39 -31 -8 5 7 8
14 19 16 25 2 5 5 9 8 8 3 -1 7 9 8 23 1 13 -3 24 -9 24 -5 0 -7 -5 -4 -10 12
-19 -14 -37 -48 -35 -29 2 -33 0 -32 -23 0 -24 25 -46 25 -23 0 6 -4 11 -10
11 -5 0 -7 7 -4 15 4 8 10 15 15 15 4 0 5 -8 2 -17 -6 -16 -5 -16 10 -4 23 18
21 5 -3 -26 -11 -14 -17 -30 -14 -37 3 -6 -2 -2 -11 9 -17 20 -17 20 -11 -2 6
-17 2 -22 -15 -25 -12 -2 -25 -10 -27 -18 -5 -13 -3 -13 11 -1 11 8 17 9 17 3
0 -10 -31 -32 -44 -32 -10 0 -6 49 4 55 6 3 10 11 10 18 0 23 -30 -19 -32 -46
-2 -27 -18 -40 -40 -32 -16 5 -54 -22 -45 -31 4 -4 13 -2 20 4 7 6 27 12 44
14 18 1 30 5 28 8 -2 3 5 6 15 6 18 0 18 -1 2 -17 -12 -11 -19 -13 -24 -5 -5
7 -8 5 -8 -5 0 -19 -129 -139 -168 -156 -15 -7 -23 -12 -19 -13 5 0 5 -4 2
-10 -4 -6 -15 -4 -28 5 -21 13 -23 13 -24 -5 -1 -11 3 -20 8 -20 6 0 7 5 3 12
-4 7 -3 8 5 4 14 -9 5 -26 -15 -26 -8 0 -17 -7 -20 -15 -4 -8 -11 -12 -16 -9
-7 4 -7 9 0 13 6 3 -18 6 -53 6 -35 0 -66 -3 -69 -6 -4 -4 6 -4 21 -1 l28 5
-27 -22 c-16 -13 -28 -31 -28 -41 0 -11 -6 -18 -12 -16 -7 1 -10 1 -5 -1 11
-7 8 -20 -9 -37 -12 -13 -20 -14 -37 -4 -19 10 -20 9 -10 -4 11 -12 7 -17 -23
-31 -19 -10 -33 -13 -29 -7 3 6 0 7 -9 4 -9 -3 -13 -11 -9 -18 3 -6 -2 -4 -13
5 -19 17 -78 24 -68 8 3 -5 -6 -9 -20 -9 -34 0 -76 -20 -76 -37 0 -18 7 -17
41 8 16 11 42 21 59 21 16 1 27 5 24 10 -3 4 2 8 11 8 9 0 13 -4 10 -10 -3 -5
-1 -10 6 -10 7 0 10 -3 7 -6 -7 -6 -52 -15 -80 -15 -10 0 -23 -9 -28 -20 -8
-15 -18 -18 -42 -14 -26 5 -29 3 -19 -8 9 -12 6 -13 -16 -10 -22 4 -25 2 -13
-6 12 -8 7 -10 -18 -7 -19 2 -43 1 -55 -2 -20 -5 -20 -6 -1 -14 12 -5 7 -6
-16 -2 -24 3 -31 2 -21 -4 11 -8 9 -11 -10 -17 -13 -5 -36 -8 -52 -7 -15 0
-25 -3 -23 -7 3 -4 0 -8 -7 -8 -7 0 -26 -3 -44 -7 -17 -4 -34 -3 -37 2 -4 6 4
8 16 5 21 -4 22 -3 4 7 -14 10 -24 9 -45 0 l-26 -13 25 -8 c17 -5 8 -6 -25 -3
-38 3 -45 2 -30 -6 16 -8 12 -9 -18 -4 -23 3 -37 1 -33 -4 3 -5 -13 -9 -37 -9
-23 0 -36 2 -29 4 22 8 12 23 -15 23 -22 0 -25 -2 -13 -10 13 -9 13 -10 0 -10
-13 0 -13 -2 0 -10 8 -5 -473 -9 -1242 -10 -691 0 -1258 3 -1260 8 -1 4 -21
16 -43 25 -25 10 -33 16 -20 17 11 0 26 4 34 9 10 6 3 9 -22 8 -20 0 -33 -5
-30 -11 4 -5 -1 -7 -11 -3 -10 4 -29 10 -42 13 -13 3 -21 10 -18 15 3 5 -3 6
-13 2 -14 -6 -13 -9 12 -19 17 -7 36 -13 44 -14 8 0 12 -3 8 -6 -10 -10 -64
13 -102 43 -33 26 -80 84 -57 69 6 -3 13 -2 17 4 3 5 1 10 -5 10 -6 0 -8 5 -4
13 6 9 5 9 -8 0 -17 -15 -28 -8 -28 19 0 10 -4 18 -9 18 -10 0 -23 40 -28 80
-1 14 -4 948 -5 2075 l-3 2050 26 56 c47 100 130 173 232 204 34 11 289 14
1299 14 1073 1 1274 -1 1375 -14z m6794 3 c57 -19 107 -58 138 -107 65 -101
61 43 59 -2221 -2 -1130 -5 -1783 -8 -1450 l-5 605 -3 -600 c-1 -449 1 -604
10 -613 9 -9 9 -18 0 -37 -7 -15 -9 -32 -6 -38 4 -7 4 -9 -1 -5 -12 11 -40
-23 -40 -48 -1 -13 3 -20 9 -17 5 3 6 1 3 -4 -4 -6 -26 -10 -50 -9 -40 2 -43
1 -45 -25 -1 -15 2 -31 8 -34 6 -4 8 -11 4 -16 -3 -5 -9 -7 -14 -4 -5 3 -11 1
-15 -5 -3 -5 -14 -10 -23 -9 -14 0 -13 2 3 9 16 7 14 8 -12 7 -28 -2 -32 -5
-27 -22 4 -11 3 -17 -1 -13 -4 4 -18 3 -30 -2 -16 -6 -25 -5 -29 3 -5 9 -7 9
-12 0 -4 -10 -79 -12 -332 -11 l-327 3 325 5 325 5 -340 3 c-222 1 -335 -2
-325 -8 12 -8 10 -10 -10 -9 -14 0 -34 4 -45 8 -15 7 -7 10 35 15 79 9 720 12
720 4 0 -5 7 -8 15 -8 21 0 19 17 -2 21 -10 2 -198 2 -418 -1 -220 -3 -411 -2
-424 2 -14 5 -21 14 -18 22 3 8 -3 22 -14 32 -17 16 -22 16 -29 4 -7 -12 -12
-12 -22 -2 -9 9 -9 12 0 12 7 0 12 5 12 12 0 7 -7 5 -17 -6 -17 -17 -17 -18 5
-33 12 -9 22 -20 22 -26 0 -6 -13 2 -30 18 -16 15 -27 32 -24 37 3 4 0 8 -7 8
-7 0 -10 3 -6 6 3 4 0 13 -8 20 -8 8 -11 22 -8 30 4 12 8 13 14 3 4 -7 6 16 4
52 -3 41 -1 55 4 39 8 -23 9 -24 16 -6 6 13 4 21 -3 24 -7 2 -12 11 -13 20 -1
34 -18 -22 -20 -68 l-2 -45 -6 43 c-11 67 -12 730 -1 737 15 9 12 132 -2 138
-10 3 -10 8 1 21 13 15 13 19 0 27 -8 5 -490 9 -1171 9 -990 0 -1156 -2 -1152
-14 3 -8 1 -24 -6 -35 -7 -13 -7 -21 -1 -21 6 0 8 -7 5 -15 -4 -8 -1 -15 5
-15 6 0 11 -10 10 -22 0 -22 -1 -22 -8 -3 -7 17 -8 17 -13 -7 -3 -17 -1 -25 5
-21 6 4 7 -4 2 -23 -4 -16 -11 -45 -15 -64 -4 -20 -8 -26 -9 -15 -2 19 -3 19
-11 -2 -5 -12 -7 -39 -4 -60 3 -28 2 -35 -7 -26 -6 6 -10 31 -8 56 2 25 0 43
-4 40 -5 -3 -7 -45 -4 -94 3 -49 2 -87 -3 -84 -4 3 -13 -9 -19 -25 -6 -18 -6
-28 -1 -25 6 4 10 -1 10 -10 0 -9 -4 -14 -9 -11 -4 3 -8 -7 -9 -22 -1 -45 -5
-61 -12 -57 -11 7 -40 -57 -32 -70 4 -5 8 -1 10 10 2 11 8 24 12 29 5 5 4 -11
-2 -34 -10 -38 -12 -41 -19 -22 -10 28 -23 29 -14 2 7 -23 -3 -63 -14 -56 -4
3 -8 -8 -8 -24 0 -16 5 -27 10 -23 5 3 3 -5 -4 -18 -7 -13 -14 -28 -14 -34 -4
-30 -19 -76 -25 -80 -5 -3 -6 8 -4 25 3 18 -1 39 -10 52 -11 15 -16 18 -16 8
0 -13 -2 -13 -10 0 -8 11 -9 7 -4 -15 4 -16 11 -35 16 -41 5 -7 4 -23 -2 -38
-14 -37 -12 -45 5 -22 8 11 15 15 15 9 0 -7 -7 -18 -15 -26 -8 -8 -11 -18 -7
-22 4 -5 2 -5 -5 -2 -6 4 -21 -5 -32 -19 -27 -35 -27 -53 0 -23 l21 24 -14
-24 c-16 -27 -48 -37 -48 -16 0 8 4 17 10 20 5 3 14 14 19 24 8 15 5 17 -18
17 -25 0 -28 -3 -25 -31 3 -38 -2 -45 -41 -65 -19 -10 -31 -24 -32 -40 -3 -24
-3 -24 7 -3 10 25 63 56 75 45 5 -4 5 -1 1 5 -5 9 -2 11 10 6 15 -6 15 -7 -1
-16 -9 -5 -24 -10 -33 -11 -9 -2 -20 -10 -24 -19 -4 -10 -12 -25 -17 -34 -4
-10 -22 -19 -40 -21 -17 -2 -29 -6 -27 -10 2 -4 -8 -8 -22 -9 -70 -5 -817 -1
-825 4 -6 3 -7 1 -3 -5 4 -7 1 -12 -9 -12 -10 0 -13 5 -9 12 5 8 0 9 -15 5
-13 -3 -20 -3 -17 0 3 3 -2 12 -12 20 -9 8 -11 11 -4 8 8 -4 184 -7 391 -6
254 2 393 -2 423 -9 36 -9 54 -9 94 4 62 19 95 17 -468 19 -276 1 -464 -2
-460 -7 3 -5 0 -6 -7 -2 -6 4 -9 12 -6 17 4 5 2 9 -4 9 -19 0 -41 47 -51 106
-10 61 -3 137 11 128 5 -3 9 2 9 10 0 9 -4 16 -9 16 -5 0 -3 18 5 40 8 21 11
46 8 54 -7 19 16 32 27 15 21 -33 33 39 14 85 -6 14 -5 17 5 11 10 -6 10 -4 3
10 -7 13 -5 35 8 77 20 69 35 90 25 38 -5 -24 -4 -30 2 -21 8 11 11 10 16 -5
3 -10 3 -1 0 21 -10 76 -7 113 10 159 17 45 19 46 62 46 l45 0 -3 60 c-1 33
-6 54 -10 47 -13 -20 -10 11 4 36 10 19 9 20 -4 9 -13 -11 -15 -9 -15 13 0 14
3 28 8 31 5 3 9 -3 9 -12 0 -10 3 -15 6 -11 3 3 3 15 -1 27 -6 18 -9 19 -22 8
-15 -12 -15 -10 -3 12 7 14 15 40 17 60 2 19 8 37 14 41 6 3 9 10 8 15 -1 5
-1 18 0 29 1 16 3 17 11 5 14 -22 47 18 54 66 4 30 4 33 -3 14 l-9 -25 -1 28
c-1 15 4 27 9 27 6 0 10 10 10 23 0 20 -2 19 -16 -8 -8 -16 -14 -44 -12 -61 2
-17 -2 -36 -9 -43 -7 -6 -13 -10 -14 -9 -8 33 -7 48 3 42 6 -4 8 -3 5 3 -10
16 4 74 16 66 6 -4 7 4 3 21 -4 18 -3 25 4 21 8 -5 16 39 11 68 -1 4 4 17 10
28 6 12 12 33 14 47 2 15 35 144 74 287 117 435 174 649 315 1175 74 278 142
523 151 545 224 542 789 1022 1330 1129 95 19 2562 23 2616 4z m-17750 -3408
c0 -10 3 -8 8 5 8 19 9 18 22 -8 9 -19 9 -31 2 -38 -7 -7 -20 3 -41 35 -24 34
-26 43 -12 33 11 -6 20 -19 21 -27z m-4931 -61 c0 -15 -18 -19 -23 -6 -3 8 1
14 9 14 8 0 14 -4 14 -8z m19350 -65 c0 -8 -5 -12 -10 -9 -7 4 -9 -2 -4 -19 3
-14 2 -26 -3 -26 -9 0 -10 22 -5 68 3 18 22 5 22 -14z m-18172 -19 c-1 -19 -6
-35 -11 -35 -5 0 -7 10 -3 23 3 12 6 28 6 35 0 6 2 12 5 12 3 0 5 -16 3 -35z
m-8618 5 c0 -5 -4 -10 -10 -10 -5 0 -10 5 -10 10 0 6 5 10 10 10 6 0 10 -4 10
-10z m7364 -28 c-8 -46 -65 -81 -78 -47 -4 12 -2 13 13 6 20 -11 41 3 41 26 0
7 5 13 11 13 5 0 7 5 3 11 -4 8 -12 2 -21 -15 -7 -14 -18 -26 -24 -26 -5 0 2
16 17 35 30 39 45 38 38 -3z m-7289 -30 c-3 -9 0 -12 9 -9 8 3 20 -2 28 -11
12 -16 11 -16 -6 -2 -18 14 -19 13 -13 -2 8 -23 5 -22 -22 1 -13 11 -28 22
-34 24 -7 2 -8 8 -4 13 4 5 12 2 17 -6 14 -21 12 -3 -1 23 -12 22 -12 22 10 3
12 -11 19 -26 16 -34z m12420 29 c3 -5 0 -13 -6 -17 -7 -4 -9 -3 -5 4 3 5 0
13 -6 15 -9 4 -10 6 -1 6 6 1 14 -3 18 -8z m16582 -58 c-2 -16 -4 -5 -4 22 0
28 2 40 4 28 2 -13 2 -35 0 -50z m-20476 10 c-12 -20 -14 -14 -5 12 4 9 9 14
11 11 3 -2 0 -13 -6 -23z m16905 -40 c0 -10 3 -30 7 -45 4 -16 4 -28 -1 -28
-14 0 -31 46 -25 69 7 25 19 28 19 4z m-26639 -15 c-3 -8 -6 -5 -6 6 -1 11 2
17 5 13 3 -3 4 -12 1 -19z m1293 -18 c9 -5 19 -5 26 1 8 7 15 6 19 -2 18 -28
-43 -31 -66 -3 -13 16 -1 18 21 4z m5517 -26 c-3 -3 -12 -4 -19 -1 -8 3 -5 6
6 6 11 1 17 -2 13 -5z m19808 -4 c3 -5 1 -10 -4 -10 -6 0 -11 5 -11 10 0 6 2
10 4 10 3 0 8 -4 11 -10z m-21105 -30 c0 -5 -4 -10 -10 -10 -5 0 -7 -8 -4 -17
5 -14 4 -15 -4 -4 -11 15 -5 41 9 41 5 0 9 -4 9 -10z m8260 2 c0 -5 -6 -16
-13 -27 -11 -14 -16 -15 -22 -5 -5 8 -4 11 3 6 6 -3 13 3 17 14 6 20 15 27 15
12z m3300 -21 c0 -5 -7 -14 -15 -21 -13 -11 -13 -15 -3 -22 11 -6 11 -10 0
-16 -7 -5 -13 -25 -14 -45 -1 -20 -5 -34 -10 -31 -5 3 -6 -7 -3 -23 5 -21 4
-24 -4 -13 -9 12 -11 13 -11 1 0 -8 -2 -12 -5 -10 -2 3 5 33 16 68 14 48 17
67 8 77 -9 11 -8 18 1 29 14 16 40 20 40 6z m-14560 -10 c0 -6 19 -12 43 -14
23 -2 4 -4 -43 -4 -47 0 -72 2 -56 4 22 4 26 7 15 14 -10 6 -7 9 14 9 15 0 27
-4 27 -9z m68 2 c-10 -2 -28 -2 -40 0 -13 2 -5 4 17 4 22 1 32 -1 23 -4z
m5485 -15 c-2 -5 -10 -8 -18 -8 -8 0 -16 3 -18 8 -3 4 5 7 18 7 13 0 21 -3 18
-7z m7167 -147 c0 -3 -9 5 -20 19 -23 30 -27 14 -4 -18 8 -12 10 -22 5 -22 -6
0 -11 6 -11 13 0 8 -3 7 -10 -3 -5 -8 -12 -11 -17 -7 -4 5 -1 12 6 17 12 7 11
11 -3 25 -13 13 -14 20 -5 31 10 12 16 9 35 -18 13 -17 24 -34 24 -37z m1790
-37 c0 -8 -5 -12 -10 -9 -6 4 -8 11 -5 16 9 14 15 11 15 -7z m-12455 -37 c4 4
5 2 0 -6 -7 -12 -10 -11 -22 4 -7 11 -13 24 -13 29 1 6 6 1 13 -12 7 -12 17
-19 22 -15z m1120 15 c7 -18 -9 -37 -23 -28 -15 9 -11 43 5 43 6 0 15 -7 18
-15z m81 -94 c-7 -5 -8 -11 -1 -15 6 -5 10 -15 10 -23 0 -10 10 -15 32 -14 26
0 30 -3 23 -17 -5 -9 -6 -19 -3 -23 3 -3 1 -6 -6 -6 -7 0 -11 7 -8 15 4 8 2
17 -3 20 -6 4 -10 1 -10 -6 0 -7 -11 -2 -25 11 -14 13 -23 26 -20 28 3 3 -3
11 -12 17 -14 11 -15 15 -4 28 10 13 16 14 26 4 9 -9 10 -14 1 -19z m11210 17
c12 -11 12 -19 4 -35 -14 -27 -23 -25 -15 3 5 17 4 19 -4 7 -6 -8 -11 -33 -11
-55 0 -61 -3 -75 -12 -75 -8 0 -5 54 8 138 6 36 9 38 30 17z m9520 -127 c0
-20 -5 -22 -26 -8 -11 7 -12 10 -2 10 9 0 11 7 7 21 -6 19 -5 20 7 9 7 -7 14
-22 14 -32z m-12476 -7 c0 -5 -7 -12 -16 -15 -14 -5 -15 -4 -4 9 14 17 20 19
20 6z m-9620 -19 c0 -4 -9 -13 -20 -20 -23 -14 -26 -8 -7 13 13 16 27 19 27 7z
m4864 0 c3 -5 -15 -26 -40 -46 -36 -31 -48 -36 -57 -26 -9 10 -9 11 1 6 14 -8
65 38 54 49 -4 3 0 10 8 15 19 12 27 12 34 2z m-109 -81 c3 -5 -2 -17 -11 -25
-20 -21 -41 -21 -24 -1 11 13 10 14 -6 8 -17 -6 -17 -5 -5 10 15 19 37 22 46
8z m16182 -19 c-10 -2 -17 -8 -17 -13 0 -5 -5 -9 -10 -9 -6 0 -20 -9 -32 -20
-28 -25 -48 -26 -41 -1 6 25 51 67 60 57 4 -4 0 -12 -9 -17 -10 -6 -23 -20
-29 -32 -10 -18 -7 -17 22 7 19 16 35 33 35 37 1 5 2 12 3 15 0 4 8 0 18 -7
15 -13 15 -14 0 -17z m2332 -15 c0 -21 -1 -21 -9 -2 -12 28 -12 37 0 30 6 -3
10 -16 9 -28z m-10769 -8 c-7 -11 -14 -19 -16 -16 -7 7 7 37 17 37 6 0 5 -9
-1 -21z m-16260 -42 c9 -7 15 -17 15 -24 0 -15 -15 -30 -15 -14 0 7 -4 10 -9
6 -5 -3 -12 -1 -15 4 -4 5 -1 13 5 17 8 4 7 9 -2 15 -8 5 -9 9 -4 9 6 -1 17
-6 25 -13z m3533 -22 c-13 -9 -22 -10 -35 -2 -9 6 -15 13 -13 16 3 2 11 -2 20
-9 18 -15 20 1 3 19 -11 10 -8 10 14 0 25 -11 26 -13 11 -24z m9998 12 c-10
-9 -11 -8 -5 6 3 10 9 15 12 12 3 -3 0 -11 -7 -18z m-13376 -67 c3 -5 2 -10
-4 -10 -5 0 -13 5 -16 10 -3 6 -2 10 4 10 5 0 13 -4 16 -10z m26776 -17 c-12
-20 -14 -14 -5 12 4 9 9 14 11 11 3 -2 0 -13 -6 -23z m-21243 -10 c8 -8 11
-17 8 -21 -4 -3 -10 -2 -14 4 -4 6 -18 18 -32 28 l-25 18 25 -7 c13 -4 30 -14
38 -22z m13125 -1 c-6 -26 -18 -29 -27 -6 -3 8 -2 12 4 9 6 -3 13 1 16 10 9
23 14 13 7 -13z m11971 4 c-5 -14 -9 -15 -15 -5 -5 8 -3 17 4 21 15 9 19 4 11
-16z m-38 -58 c4 -6 2 -8 -4 -4 -6 3 -12 -1 -14 -9 -2 -13 -5 -13 -14 3 -10
15 -8 18 7 19 10 1 22 -3 25 -9z m-17049 -4 c-3 -3 -12 -4 -19 -1 -8 3 -5 6 6
6 11 1 17 -2 13 -5z m6228 -13 c-1 -9 -8 -16 -16 -16 -8 -1 -13 -7 -11 -15 3
-12 1 -12 -9 -3 -9 9 -9 15 0 27 9 11 9 15 -1 19 -7 2 -1 4 13 4 19 0 26 -4
24 -16z m10775 -1 c9 -16 8 -20 -5 -20 -8 0 -15 9 -15 20 0 11 2 20 5 20 2 0
9 -9 15 -20z m-20560 -21 c0 -6 -4 -7 -10 -4 -5 3 -10 11 -10 16 0 6 5 7 10 4
6 -3 10 -11 10 -16z m16769 2 c-13 -11 -26 -17 -29 -14 -6 6 30 33 43 33 5 0
-1 -9 -14 -19z m2781 -5 c0 -18 8 -27 30 -35 17 -5 30 -13 30 -16 0 -3 -16 2
-36 10 -20 8 -39 15 -42 15 -3 0 -2 3 1 6 3 4 2 15 -4 25 -7 15 -6 19 6 19 9
0 15 -9 15 -24z m-21966 -47 c-3 -5 -23 -9 -45 -9 -24 0 -38 -4 -34 -10 3 -5
1 -10 -4 -10 -6 0 -11 5 -11 10 0 6 -4 10 -10 10 -5 0 -10 -7 -10 -15 0 -9 -9
-15 -25 -15 -14 0 -25 5 -25 10 0 6 5 10 12 10 7 0 8 3 3 9 -6 4 -28 6 -50 3
l-40 -6 35 -7 35 -6 -37 -2 c-20 0 -40 4 -43 9 -4 6 -204 10 -567 10 -309 0
-558 -3 -554 -7 4 -5 258 -10 564 -13 l557 -6 -587 -1 c-323 -1 -600 2 -615 6
l-28 8 25 6 c64 15 149 17 773 17 408 1 665 5 662 10 -3 6 1 7 9 4 9 -3 13
-10 10 -15z m19045 9 c-15 -5 -42 -5 -65 1 -37 9 -35 9 26 9 50 -1 59 -3 39
-10z m-16509 -8 c0 -5 -4 -10 -9 -10 -6 0 -13 5 -16 10 -3 6 1 10 9 10 9 0 16
-4 16 -10z m-7963 -6 c-3 -3 -12 -4 -19 -1 -8 3 -5 6 6 6 11 1 17 -2 13 -5z
m18870 -9 c20 -8 33 -18 29 -22 -3 -4 -12 -1 -18 5 -7 7 -25 12 -41 12 -16 0
-26 4 -22 10 8 13 9 13 52 -5z m-4311 -641 c50 -120 3 -342 -122 -571 -136
-250 -409 -601 -726 -934 -76 -79 -138 -147 -138 -152 0 -4 18 -36 40 -71 101
-160 253 -242 470 -253 184 -10 318 33 418 134 106 107 172 276 172 439 0 80
-1 83 -31 108 -21 18 -43 26 -72 27 -122 3 -163 -9 -234 -67 -48 -40 -114
-130 -142 -198 -21 -48 -31 -58 -47 -48 -17 12 -54 69 -54 84 0 24 70 161 115
223 112 155 243 236 404 251 41 4 124 -1 216 -12 83 -11 196 -19 251 -19 129
0 144 10 144 94 0 62 -20 114 -71 188 l-32 47 49 45 c28 25 81 65 120 89 l69
42 27 -29 c47 -52 70 -181 48 -272 -49 -208 -205 -371 -415 -435 -33 -10 -64
-21 -68 -25 -5 -4 -22 -47 -38 -95 -90 -271 -287 -547 -490 -685 -382 -259
-900 -217 -1108 90 -57 83 -108 189 -138 288 -25 82 -27 101 -27 273 -1 164 2
194 22 265 43 148 143 310 250 405 106 94 264 187 349 205 47 10 134 -12 186
-46 51 -34 100 -116 118 -197 6 -29 14 -52 19 -52 16 0 129 207 149 273 39
129 49 299 25 416 -6 30 -5 33 10 28 11 -4 15 -3 10 4 -7 13 24 41 106 96 30
21 61 44 69 51 7 7 20 11 28 8 8 -3 12 -2 8 3 -5 10 10 18 34 18 7 0 20 -15
27 -33z m-10330 -402 c-17 -16 -18 -16 -5 5 7 12 15 20 18 17 3 -2 -3 -12 -13
-22z m-4639 -64 c-3 -8 -6 -5 -6 6 -1 11 2 17 5 13 3 -3 4 -12 1 -19z m3080
-10 c-3 -8 -6 -5 -6 6 -1 11 2 17 5 13 3 -3 4 -12 1 -19z m14400 -20 c-3 -8
-6 -5 -6 6 -1 11 2 17 5 13 3 -3 4 -12 1 -19z m-14110 -10 c-3 -8 -6 -5 -6 6
-1 11 2 17 5 13 3 -3 4 -12 1 -19z m-4703 -4 c3 -8 2 -12 -4 -9 -6 3 -10 10
-10 16 0 14 7 11 14 -7z m4393 -24 c-7 -17 -13 -26 -15 -21 -3 10 15 51 22 51
3 0 -1 -14 -7 -30z m15380 8 c-3 -8 -6 -5 -6 6 -1 11 2 17 5 13 3 -3 4 -12 1
-19z m8213 -3 c0 -8 -3 -16 -7 -18 -5 -3 -8 5 -8 18 0 13 3 21 8 18 4 -2 7
-10 7 -18z m-9173 -17 c-3 -8 -6 -5 -6 6 -1 11 2 17 5 13 3 -3 4 -12 1 -19z
m-19180 -10 c-3 -8 -6 -5 -6 6 -1 11 2 17 5 13 3 -3 4 -12 1 -19z m5054 -9
c-5 -13 -10 -19 -10 -12 -1 15 10 45 15 40 3 -2 0 -15 -5 -28z m19 -24 c-6 -8
-9 -18 -6 -23 3 -5 -4 -53 -15 -108 -85 -411 -192 -1060 -185 -1118 4 -31 29
-56 57 -56 18 0 138 78 182 118 15 14 27 24 28 21 6 -27 4 -70 -5 -96 -22 -64
-147 -174 -306 -270 -97 -58 -163 -83 -221 -83 -74 0 -101 32 -113 130 -10 90
10 243 78 584 35 176 79 405 97 508 18 102 37 184 41 182 4 -3 5 2 2 10 -7 19
15 128 25 121 10 -5 31 39 31 63 -1 9 -7 2 -16 -17 -8 -19 -17 -31 -20 -28 -3
3 -1 15 6 26 6 12 8 27 4 34 -4 6 -3 9 1 4 5 -4 16 4 25 19 l17 25 6 -22 c3
-12 2 -30 -4 -40 -12 -23 -12 -49 1 -49 6 0 10 12 10 28 0 16 3 22 8 15 5 -8
50 -13 135 -15 115 -3 126 -1 121 14 -2 9 0 19 6 23 5 3 11 18 11 33 2 24 2
25 6 4 3 -13 -1 -29 -7 -37z m3388 0 c0 -16 -2 -15 -8 5 -11 34 -11 60 0 35 5
-11 8 -29 8 -40z m-316 13 c2 -15 7 -30 10 -34 4 -3 4 -13 1 -22 -4 -13 -3
-14 5 -4 7 10 39 12 131 10 l123 -3 -4 38 c-3 30 -1 35 8 23 6 -9 14 -13 17
-9 4 3 7 1 7 -5 0 -7 -4 -12 -10 -12 -5 0 -10 -15 -9 -32 1 -30 2 -31 8 -8 4
15 10 20 14 13 8 -13 -1 -43 -14 -43 -5 0 -9 -10 -8 -22 0 -22 1 -22 10 -3 6
15 7 11 3 -15 -4 -19 -11 -40 -16 -47 -5 -7 -7 -16 -4 -21 2 -4 -26 -181 -64
-393 -109 -603 -117 -709 -58 -709 29 0 112 49 163 96 l40 37 3 -34 c6 -60
-15 -103 -86 -176 -150 -153 -382 -293 -487 -293 -73 0 -83 83 -40 334 14 81
25 152 25 157 0 24 -30 2 -80 -58 -66 -78 -165 -168 -278 -251 -204 -151 -356
-182 -454 -94 -51 46 -72 92 -94 207 -34 183 -2 440 80 638 38 91 96 197 121
217 8 7 15 18 15 24 0 12 119 136 130 136 4 0 38 20 76 45 38 25 75 43 82 40
7 -2 10 0 7 5 -8 13 62 43 82 36 8 -3 11 -1 8 4 -13 20 150 73 195 64 19 -4
22 -3 10 5 -18 12 -9 13 162 12 l116 -1 13 72 c7 40 15 64 17 53 9 -46 23 -38
17 10 -4 28 -5 48 -2 45 3 -3 7 -17 9 -32z m11390 3 c2 -17 1 -28 -4 -25 -8 5
-12 54 -4 54 2 0 6 -13 8 -29z m980 -48 c6 -11 7 -27 2 -34 -5 -8 -12 6 -20
41 -15 65 -16 87 -2 45 5 -16 14 -40 20 -52z m-20516 -6 c-3 -12 -3 -16 0 -9
4 9 47 12 163 12 l158 0 11 33 c7 23 10 26 12 12 l1 -20 10 20 9 20 -2 -20 c0
-11 2 -28 6 -37 5 -10 6 -23 3 -30 -4 -12 -10 -3 -23 41 -3 8 -7 11 -11 8 -3
-4 2 -27 12 -52 11 -30 14 -55 10 -73 -5 -15 -9 -34 -10 -42 -1 -8 -8 -56 -15
-106 -7 -50 -11 -98 -7 -107 6 -16 47 -17 465 -17 356 0 462 3 470 13 5 6 13
37 17 67 4 30 10 59 12 64 3 4 7 34 10 65 2 31 8 57 13 59 6 2 7 15 4 28 -8
30 4 94 16 94 6 0 10 -9 10 -21 0 -11 -4 -17 -10 -14 -6 4 -9 -5 -8 -19 3 -36
15 -32 22 7 l6 32 169 0 169 0 5 -55 c3 -38 -10 -154 -44 -370 -27 -173 -57
-382 -68 -465 -11 -82 -27 -201 -35 -263 -17 -124 -10 -197 23 -226 21 -20
113 -44 193 -53 54 -5 58 -8 58 -31 0 -14 -5 -41 -12 -59 -9 -25 -16 -32 -28
-26 -8 4 -233 8 -499 8 -339 1 -486 5 -489 13 -2 6 2 28 7 50 11 38 13 40 63
46 199 27 228 59 277 306 46 232 94 538 87 563 l-6 27 -428 0 c-235 0 -444 -3
-464 -6 -46 -8 -45 -4 -87 -279 -43 -281 -66 -476 -58 -506 14 -54 49 -75 158
-92 55 -8 103 -17 105 -20 8 -8 -17 -105 -29 -110 -7 -2 -88 0 -182 5 -93 5
-315 7 -492 4 -313 -5 -322 -4 -328 15 -4 11 -2 34 4 52 l11 33 100 12 c117
14 147 27 182 79 45 68 47 79 158 753 33 201 65 390 71 420 6 30 10 67 10 83
0 15 3 27 8 27 4 0 6 15 4 33 -3 24 -2 29 6 17 9 -12 11 -10 12 10 2 31 2 31
-6 55 -3 11 1 7 10 -8 9 -15 14 -38 11 -50z m1712 46 c0 -16 1 -32 2 -38 1 -5
1 -19 0 -30 -1 -13 -5 -8 -11 15 -8 32 -5 80 6 80 2 0 3 -12 3 -27z m18613
-43 l171 0 -2 -27 c-3 -43 -1 -49 11 -33 9 12 10 12 5 -3 -3 -10 -6 -23 -6
-28 0 -6 -5 -7 -12 -3 -6 4 -8 3 -5 -4 10 -15 -3 -43 -16 -35 -6 3 -7 1 -3 -6
11 -18 -26 -70 -101 -142 -77 -74 -127 -111 -137 -102 -3 3 -6 1 -6 -6 0 -11
-156 -91 -178 -91 -5 0 -15 -7 -22 -15 -9 -10 -9 -15 -1 -15 6 0 11 -6 11 -14
0 -7 45 -103 99 -212 103 -205 303 -530 367 -596 47 -49 122 -84 207 -99 l67
-11 0 -42 c0 -70 1 -69 -176 -67 -213 3 -339 16 -410 42 -74 28 -138 93 -210
216 -55 92 -241 470 -283 573 -12 30 -38 73 -57 95 -33 37 -38 40 -102 43 -49
3 -71 0 -79 -9 -20 -25 -95 -540 -97 -664 -1 -66 3 -85 19 -107 27 -36 44 -43
158 -64 l97 -18 0 -36 c0 -64 6 -63 -246 -56 -126 3 -346 3 -489 -1 -143 -5
-270 -7 -283 -5 -21 3 -23 8 -20 50 l3 47 50 8 c185 30 240 55 265 120 24 66
137 667 202 1077 5 36 13 72 16 80 6 15 7 28 10 88 1 20 6 31 12 27 7 -4 9 9
5 37 -3 24 -2 37 1 31 9 -21 26 -15 19 6 -3 11 -1 22 5 26 9 6 14 -12 12 -45
-1 -13 24 -15 166 -15 l167 0 -3 -50 c-2 -27 -14 -126 -28 -218 -13 -93 -24
-173 -24 -178 0 -14 188 -10 265 6 162 34 300 136 345 255 7 19 20 44 29 54
12 14 12 17 2 11 -11 -6 -13 -4 -7 11 4 10 11 53 14 94 l7 75 6 -50 6 -50 3
60 c3 47 4 52 7 23 l4 -38 170 0z m201 28 c-6 -6 -7 0 -4 19 5 21 7 23 10 9 2
-10 0 -22 -6 -28z m7830 10 c-7 -7 -12 -8 -12 -2 0 14 12 26 19 19 2 -3 -1
-11 -7 -17z m248 -18 c0 -5 -4 -10 -9 -10 -13 0 -19 -69 -7 -80 8 -5 11 4 11
28 0 31 4 38 23 40 25 4 29 -13 7 -34 -8 -9 -15 -21 -15 -27 0 -7 5 -6 11 3 8
11 9 9 4 -10 -4 -14 -11 -29 -15 -34 -4 -4 -2 -15 6 -25 13 -14 33 -15 182 -9
165 8 167 7 184 -15 10 -12 18 -17 18 -10 0 6 -4 15 -10 18 -15 9 -12 25 4 25
35 0 28 -35 -17 -86 -11 -13 -25 -24 -30 -24 -4 0 -15 -7 -23 -15 -22 -22 -87
-37 -214 -49 -108 -10 -115 -13 -127 -36 -6 -14 -33 -145 -58 -290 -97 -559
-99 -660 -11 -660 53 0 130 46 217 131 46 43 87 79 92 79 17 0 -3 -102 -28
-144 -77 -129 -314 -303 -476 -350 -125 -36 -183 -20 -227 65 -51 100 -41 209
78 818 38 194 67 357 64 362 -3 5 -38 9 -78 9 -99 0 -166 10 -166 25 0 12 33
47 41 43 2 -2 3 -1 2 1 -4 6 70 77 94 89 12 7 49 12 82 12 64 0 81 12 81 59 0
10 4 21 9 23 5 2 12 17 15 33 5 24 4 26 -3 10 -7 -14 -10 -15 -10 -5 0 8 4 22
9 30 6 10 10 11 10 3 0 -20 233 -18 250 2 14 17 30 20 30 5z m37 4 c-3 -3 -12
-4 -19 -1 -8 3 -5 6 6 6 11 1 17 -2 13 -5z m-16271 -121 c3 -10 9 -25 14 -34
5 -9 14 -44 20 -76 37 -205 -110 -576 -443 -1123 -255 -417 -582 -818 -807
-987 -75 -57 -179 -104 -233 -106 -46 -2 -92 16 -101 40 -6 15 114 255 164
328 17 25 42 53 56 61 22 15 28 15 74 -5 27 -12 70 -24 94 -27 40 -6 52 -3 96
26 72 46 187 199 218 289 42 120 -16 640 -120 1081 -11 47 -21 90 -22 95 -6
30 -53 96 -72 101 -29 7 -114 -47 -172 -110 -24 -25 -47 -44 -51 -42 -4 3 -6
29 -4 58 6 69 30 105 158 236 80 82 107 103 121 98 10 -4 15 -4 12 0 -28 27
168 113 217 94 16 -6 23 -14 19 -22 -4 -6 -3 -8 4 -5 18 12 59 -49 86 -130 42
-123 80 -365 116 -728 11 -115 24 -228 28 -250 l7 -40 53 92 c73 128 137 267
179 392 43 125 53 235 32 345 -15 85 -12 73 -33 119 -9 21 -14 42 -11 47 4 6
1 10 -6 10 -21 0 43 59 103 96 33 20 63 32 70 28 7 -4 10 -4 6 1 -9 10 55 45
82 45 11 0 20 5 20 10 0 17 20 11 26 -7z m-8921 -2 c-3 -5 12 -10 32 -10 59 0
74 -2 69 -9 -2 -4 8 -8 22 -9 15 0 28 -6 30 -12 2 -6 9 -11 15 -11 14 0 96
-70 83 -70 -6 0 -3 -6 6 -12 24 -19 73 -114 92 -177 21 -70 21 -259 1 -374
-29 -169 -108 -345 -209 -469 -96 -118 -265 -227 -438 -283 -216 -70 -383 -62
-485 24 -36 30 -101 130 -123 188 -51 137 -49 349 5 552 39 145 132 330 157
315 7 -4 8 -2 4 4 -4 7 6 28 21 49 35 45 153 144 165 137 4 -3 8 -1 8 5 0 6
14 17 30 26 17 9 30 12 30 9 0 -4 8 0 18 9 42 38 261 111 333 111 27 0 46 3
43 8 -3 4 18 8 46 8 29 0 49 -4 45 -9z m2835 -6 c6 -8 8 -20 4 -26 -4 -8 -3
-9 4 -5 18 11 34 -70 27 -138 -4 -34 -40 -212 -80 -396 -86 -391 -107 -517
-93 -567 8 -31 12 -34 36 -28 39 9 90 43 145 94 50 47 51 47 47 -29 -2 -44
-12 -59 -89 -138 -158 -161 -381 -274 -469 -237 -76 33 -74 197 9 565 61 273
109 516 109 549 0 25 -5 41 -15 45 -21 8 -72 -12 -130 -51 -27 -18 -53 -29
-58 -24 -16 16 14 100 43 121 15 11 31 16 35 12 5 -4 5 -2 1 5 -4 7 5 19 21
30 15 10 53 36 83 59 103 78 280 169 311 161 10 -3 17 -1 13 4 -9 15 33 10 46
-6z m3980 3 c39 1 192 -16 228 -25 27 -6 28 -22 2 -73 -53 -105 -189 -798
-190 -968 0 -64 13 -92 43 -92 29 0 102 47 146 94 19 20 39 36 44 36 6 0 7
-23 4 -56 -5 -45 -14 -66 -48 -110 -137 -178 -419 -328 -517 -275 -45 24 -55
65 -49 191 6 120 9 141 32 227 15 61 3 80 -27 42 -320 -408 -634 -575 -754
-400 -89 130 -98 371 -23 639 40 146 171 366 280 472 48 46 163 130 178 130 6
0 11 5 11 11 0 6 7 8 16 5 8 -3 13 -2 10 3 -6 8 12 20 25 17 4 0 15 6 25 15
27 24 105 60 115 53 5 -3 9 0 9 7 0 7 3 9 7 6 3 -4 11 -3 17 2 11 9 117 38
146 40 69 4 124 12 129 17 3 3 29 3 56 -1 28 -4 66 -7 85 -7z m3535 -15 c64
-20 81 -33 63 -46 -9 -6 -8 -7 4 -3 12 3 23 -3 34 -18 14 -23 13 -29 -13 -91
-30 -73 -111 -172 -140 -172 -9 0 -28 14 -42 30 -38 46 -84 86 -104 93 -9 3
-14 10 -11 16 4 7 2 8 -4 4 -6 -4 -24 0 -39 7 -109 55 -229 7 -240 -95 -10
-90 56 -163 295 -327 183 -125 260 -238 249 -362 -5 -59 -46 -161 -88 -220
-70 -99 -278 -231 -417 -264 -102 -24 -277 -18 -345 13 -55 24 -106 64 -124
96 -28 48 -4 168 59 293 20 39 61 75 71 62 2 -2 18 -34 35 -71 62 -128 185
-222 306 -235 75 -8 121 3 161 38 64 56 56 142 -20 227 -25 27 -108 98 -184
156 -236 180 -293 289 -247 464 17 62 31 85 100 167 83 98 230 206 258 189 6
-4 8 -2 5 3 -4 6 0 14 9 17 10 4 13 2 8 -7 -4 -6 1 -5 12 5 23 19 119 49 137
42 8 -3 24 0 38 6 29 12 107 5 174 -17z m8419 -1 c17 -9 35 -15 39 -14 5 1 6
-2 3 -7 -3 -5 3 -11 13 -14 10 -2 32 -26 47 -53 25 -42 29 -59 29 -124 0 -101
-40 -186 -124 -262 -77 -69 -341 -212 -486 -262 -60 -21 -116 -43 -122 -48
-16 -13 -17 -109 -2 -180 15 -69 61 -160 95 -187 40 -32 100 -44 189 -38 124
7 242 63 363 172 l52 47 0 -41 c0 -59 -19 -97 -85 -169 -75 -82 -159 -141
-286 -201 -139 -66 -223 -85 -342 -79 -194 10 -288 98 -333 310 -21 99 -14
343 14 444 43 157 146 382 172 376 6 -1 8 3 4 9 -17 28 239 231 268 213 6 -4
8 -3 5 2 -3 6 24 23 61 38 37 15 74 31 83 36 16 8 147 46 189 53 41 8 121 -3
154 -21z m1473 16 c13 0 20 -4 17 -9 -3 -5 1 -6 9 -4 29 12 137 -55 137 -85 0
-6 -12 -39 -26 -76 -29 -70 -114 -174 -143 -174 -9 0 -29 19 -46 41 -44 60
-147 125 -210 134 -11 2 -24 4 -30 6 -5 1 -28 -3 -50 -9 -83 -24 -122 -103
-91 -185 22 -58 129 -152 326 -285 59 -41 162 -149 185 -195 73 -147 -15 -352
-210 -492 -144 -103 -272 -146 -434 -146 -111 0 -173 16 -241 62 -87 59 -98
108 -54 237 55 166 117 231 139 145 18 -76 138 -208 222 -245 26 -12 78 -23
115 -26 115 -8 188 45 188 135 -1 75 -68 152 -251 290 -106 79 -183 157 -222
223 -48 82 -46 199 5 307 44 93 275 299 311 276 6 -3 7 -1 3 5 -4 7 -5 12 -3
12 2 0 35 11 73 24 38 13 89 27 114 31 25 4 47 9 50 12 3 3 25 2 50 -2 25 -4
55 -7 67 -7z m1690 4 c-10 -4 7 -8 40 -8 103 -1 187 -55 256 -165 63 -99 72
-142 71 -334 -1 -150 -4 -182 -27 -270 -53 -201 -173 -389 -322 -502 -84 -64
-240 -142 -350 -174 -65 -20 -103 -24 -205 -24 -112 0 -130 3 -170 23 -169 88
-251 305 -220 585 19 176 81 364 159 484 68 105 216 241 248 229 8 -3 12 -2 9
3 -8 13 71 52 91 45 12 -4 14 -3 6 3 -9 6 -2 13 25 23 20 8 39 15 42 15 3 1
18 7 34 14 16 6 36 9 43 7 8 -3 12 -2 9 3 -5 8 24 17 84 27 8 2 38 7 65 12 60
12 138 14 112 4z m1524 -2 c42 0 52 -182 19 -339 -20 -96 -26 -171 -12 -171 4
0 26 36 50 79 60 109 156 246 170 244 7 -2 11 0 10 5 -5 16 24 53 37 48 9 -3
12 0 9 8 -5 14 71 81 116 104 63 32 130 33 187 4 36 -19 85 -72 65 -72 -4 0
-6 -15 -4 -34 3 -24 -5 -52 -26 -93 -49 -97 -102 -174 -114 -167 -6 4 -8 3 -5
-3 8 -13 -21 -53 -38 -53 -8 0 -38 18 -67 40 -75 57 -117 68 -160 43 -138 -80
-358 -638 -358 -909 l0 -81 -62 -30 c-83 -40 -252 -103 -277 -103 -43 0 -42
25 20 325 98 477 106 516 124 621 9 55 15 125 13 155 l-3 54 -40 -2 c-27 -2
-60 -17 -107 -48 -37 -25 -70 -45 -73 -45 -10 0 -5 51 9 83 22 54 293 276 318
261 6 -4 9 -3 5 2 -3 5 17 22 45 37 27 15 46 22 42 15 -6 -10 -4 -10 9 0 9 8
22 10 28 6 7 -4 9 -3 5 4 -7 11 21 22 42 16 8 -2 18 -4 23 -4z m3273 0 c33 -5
62 -13 65 -17 3 -5 15 -9 25 -11 31 -6 67 -34 77 -59 14 -37 -34 -143 -93
-209 -28 -30 -57 -54 -67 -54 -9 1 -32 21 -51 46 -69 89 -204 147 -289 124
-79 -21 -120 -106 -87 -184 19 -45 110 -134 205 -198 178 -120 277 -214 313
-295 46 -104 -3 -276 -110 -386 -99 -102 -251 -191 -379 -222 -110 -27 -279
-18 -353 17 -91 44 -130 89 -130 151 0 65 66 242 105 281 21 21 44 20 51 -1
34 -102 141 -225 230 -265 58 -25 159 -35 206 -19 84 28 120 118 80 197 -25
48 -111 131 -217 209 -160 117 -234 200 -261 292 -27 94 0 233 57 294 15 16
25 30 23 32 -6 6 129 132 176 164 63 43 213 106 239 101 3 -1 13 2 21 5 17 7
54 14 85 16 11 0 47 -3 79 -9z"/>
<path d="M9783 18279 c-151 -22 -363 -91 -498 -163 -33 -18 -440 -252 -905
-521 -465 -269 -885 -512 -935 -540 -158 -90 -2106 -1215 -2200 -1270 -49 -29
-236 -137 -415 -240 -179 -103 -408 -235 -510 -294 -102 -59 -266 -154 -365
-211 -99 -58 -211 -126 -250 -153 -222 -152 -390 -345 -501 -572 -62 -129 -94
-220 -126 -365 l-23 -105 0 -3320 c0 -3198 1 -3324 19 -3420 63 -340 228 -636
472 -849 114 -100 193 -153 469 -311 132 -76 323 -186 425 -245 166 -96 811
-469 2490 -1438 300 -173 633 -365 740 -427 107 -62 341 -197 520 -300 179
-103 366 -211 415 -240 312 -182 623 -359 700 -397 377 -187 760 -219 1140
-94 155 51 214 81 490 241 116 67 302 175 415 240 191 110 1209 697 1490 860
69 40 404 233 745 430 341 197 719 415 840 485 121 70 558 322 970 560 413
238 786 456 830 485 368 239 594 573 678 1000 l21 110 4 3180 c2 2165 0 3225
-7 3321 -18 239 -61 410 -147 590 -123 259 -350 500 -620 656 -66 39 -591 341
-1414 816 -91 52 -410 237 -710 410 -300 173 -660 381 -800 462 -140 81 -399
230 -575 332 -176 102 -428 247 -560 323 -132 76 -334 193 -450 260 -1001 580
-1049 606 -1244 664 -186 55 -438 76 -618 50z m-1986 -3604 c241 -32 445 -90
658 -187 605 -275 1062 -807 1249 -1452 72 -246 86 -405 86 -952 l0 -444 -380
0 -380 0 0 446 c0 352 -3 469 -16 551 -36 243 -135 487 -276 678 -81 109 -261
283 -368 354 -232 155 -469 239 -736 261 -66 5 -460 10 -877 10 l-758 0 4
-862 c3 -848 3 -865 25 -960 136 -599 580 -1043 1180 -1180 97 -22 98 -22
1340 -25 l1243 -4 -4 -1252 c-3 -1133 -5 -1262 -21 -1361 -63 -397 -213 -747
-456 -1066 -69 -91 -247 -276 -261 -272 -6 1 -8 -2 -5 -7 8 -12 -21 -34 -34
-26 -6 4 -9 1 -8 -6 4 -15 -101 -102 -117 -96 -6 3 -18 1 -26 -5 -11 -8 -9 -8
5 -4 19 7 19 6 1 -14 -10 -11 -23 -20 -29 -20 -6 0 -4 5 4 11 13 9 13 10 0 6
-8 -2 -15 -9 -15 -16 0 -18 -77 -73 -93 -66 -7 2 -10 1 -7 -5 8 -13 -30 -31
-52 -24 -15 5 -15 4 -3 -5 8 -6 12 -11 8 -11 -3 0 -13 -3 -22 -6 -11 -4 -14
-1 -11 15 3 14 0 18 -12 14 -8 -3 -11 -9 -6 -12 25 -18 -21 -67 -47 -51 -8 5
-11 12 -7 17 5 4 12 2 16 -5 6 -10 10 -10 19 0 9 11 6 14 -13 13 -31 0 -41
-11 -26 -28 9 -12 -1 -20 -51 -43 -82 -38 -88 -39 -58 -16 13 11 29 18 35 14
5 -3 4 2 -4 11 -11 15 -11 17 2 17 8 0 17 -4 19 -9 2 -5 11 -4 21 4 16 11 14
13 -20 10 -21 -1 -46 -5 -55 -9 -9 -4 -27 -2 -40 4 -22 11 -22 10 -4 -4 20
-16 20 -16 0 -16 -18 -1 -18 -1 -1 -14 9 -7 17 -19 17 -26 0 -10 -3 -10 -15 0
-13 11 -14 10 -9 -4 5 -12 2 -15 -10 -10 -9 3 -16 1 -16 -6 0 -6 -5 -8 -10 -5
-6 4 -29 8 -53 10 -23 1 -36 1 -29 -2 6 -3 10 -9 7 -14 -4 -5 0 -6 8 -3 8 3
17 2 20 -3 3 -5 -6 -10 -21 -11 -14 -1 -31 -7 -36 -12 -14 -14 -29 -13 -20 1
4 8 0 8 -15 0 -11 -7 -21 -16 -21 -21 0 -14 -79 -33 -93 -22 -7 5 -21 6 -32 1
-11 -4 -33 -8 -50 -8 -16 -1 -37 -6 -45 -12 -11 -8 -8 -9 15 -5 90 15 111 16
85 5 -13 -5 -45 -12 -70 -15 -25 -3 -46 -10 -48 -15 -2 -5 -13 -9 -25 -8 -21
0 -21 1 2 10 29 11 21 24 -8 14 -12 -3 -21 -12 -21 -19 0 -16 -68 -25 -154
-21 -53 3 -56 3 -21 -5 l40 -8 -55 -1 c-30 -1 -601 -4 -1267 -7 -883 -4 -1213
-2 -1213 6 0 6 5 8 10 5 6 -4 9 27 8 87 l-2 93 -3 -82 c-2 -46 -8 -83 -13 -83
-14 0 -13 2279 0 2430 36 396 176 784 394 1094 l60 84 76 -54 c108 -75 293
-184 445 -261 72 -36 131 -67 133 -68 2 -2 -24 -40 -58 -85 -135 -182 -207
-340 -268 -580 l-26 -105 -3 -868 -4 -868 858 4 c840 3 860 4 955 25 140 32
263 74 369 127 420 210 700 564 817 1035 l26 105 3 877 4 877 -868 4 c-953 4
-944 3 -1203 68 -473 118 -915 402 -1220 785 -274 343 -448 770 -489 1198 -7
70 -11 534 -11 1298 l0 1188 1219 0 c1042 0 1237 -2 1338 -15z m3300 -1577
c-3 -8 -6 -5 -6 6 -1 11 2 17 5 13 3 -3 4 -12 1 -19z m2890 -220 c-2 -13 -4
-3 -4 22 0 25 2 35 4 23 2 -13 2 -33 0 -45z m-3756 -59 c-5 -13 -10 -19 -10
-12 -1 15 10 45 15 40 3 -2 0 -15 -5 -28z m759 -14 c0 -5 -5 -3 -10 5 -5 8
-10 20 -10 25 0 6 5 3 10 -5 5 -8 10 -19 10 -25z m-23 -47 c-3 -7 -5 -2 -5 12
0 14 2 19 5 13 2 -7 2 -19 0 -25z m3031 -125 c2 16 26 17 362 17 l359 0 4 68
c2 37 4 -41 4 -173 1 -132 -2 -274 -7 -315 -15 -125 -17 -143 -24 -190 -10
-80 -64 -282 -101 -385 -153 -423 -453 -820 -812 -1073 -51 -36 -93 -69 -93
-73 0 -4 17 -18 37 -30 74 -46 240 -185 339 -283 183 -184 312 -363 429 -601
105 -211 162 -384 208 -630 20 -107 21 -147 24 -1372 l4 -1263 -941 0 -940 0
0 375 0 375 555 0 555 0 0 843 c0 912 -1 928 -56 1122 -48 169 -132 330 -248
479 -220 280 -511 466 -866 554 l-105 26 -873 3 -873 4 4 -853 c3 -841 4 -854
26 -953 70 -312 202 -556 416 -770 130 -130 250 -217 396 -288 l108 -52 0
-398 1 -398 -22 6 c-187 52 -435 158 -588 252 -141 87 -305 217 -425 338 -354
354 -570 781 -647 1279 -25 161 -24 -3 -20 2711 2 1005 6 1545 12 1535 13 -20
12 -4 -1 44 -7 26 -7 41 0 45 5 4 11 28 12 54 2 29 7 47 15 47 9 0 10 -10 3
-37 -5 -21 -8 -78 -7 -128 l2 -90 3 75 c2 41 5 85 8 98 l5 22 319 0 319 0 7
-32 c4 -18 12 -38 17 -45 5 -7 7 -22 3 -34 -6 -19 -5 -20 7 -8 13 12 13 19 -4
56 -11 24 -18 51 -16 61 1 9 -1 23 -6 30 -4 7 -5 16 -1 20 3 3 10 0 15 -8 6
-10 12 -11 22 -3 20 15 50 24 43 13 -3 -6 -13 -10 -21 -10 -25 0 -39 -46 -24
-77 8 -19 14 -23 18 -14 2 7 -1 17 -7 20 -14 9 -5 37 15 45 14 6 19 -5 7 -18
-4 -3 -8 -26 -9 -51 -1 -25 -6 -51 -12 -58 -7 -8 -7 -18 -2 -27 6 -9 10 -338
10 -807 l0 -793 824 0 c520 0 853 4 903 11 244 32 509 142 702 289 89 68 242
220 298 296 57 76 107 148 108 154 1 3 18 39 40 80 21 41 40 80 42 85 1 6 18
54 37 107 66 184 87 334 88 633 1 156 3 195 8 135 3 -47 7 -77 8 -67z m-3768
116 c0 -5 -4 -9 -10 -9 -5 0 -10 7 -10 16 0 8 5 12 10 9 6 -3 10 -10 10 -16z
m-1766 -6164 c-22 -17 -34 -19 -34 -6 0 5 8 12 18 14 32 9 36 7 16 -8z m-114
-65 c8 -5 11 -10 5 -10 -5 0 -17 5 -25 10 -8 5 -10 10 -5 10 6 0 17 -5 25 -10z"/>
<path d="M8250 6533 c5 -2 8 -9 4 -14 -3 -5 0 -9 6 -9 15 0 7 23 -8 26 -7 1
-8 0 -2 -3z"/>
<path d="M8183 6508 c-13 -6 -23 -17 -23 -25 0 -18 6 -17 48 12 27 19 32 25
17 24 -11 0 -30 -5 -42 -11z"/>
<path d="M7935 6450 c-11 -5 -15 -9 -8 -9 6 -1 19 -4 29 -8 11 -4 15 -3 11 4
-4 6 -1 14 5 16 9 4 8 5 -2 6 -8 0 -24 -4 -35 -9z"/>
<path d="M8038 6453 c7 -3 16 -2 19 1 4 3 -2 6 -13 5 -11 0 -14 -3 -6 -6z"/>
<path d="M5858 6373 c320 -2 844 -2 1165 0 320 1 58 2 -583 2 -641 0 -903 -1
-582 -2z"/>
<path d="M7643 6373 c9 -2 23 -2 30 0 6 3 -1 5 -18 5 -16 0 -22 -2 -12 -5z"/>
<path d="M10912 12480 c0 -14 2 -19 5 -12 2 6 2 18 0 25 -3 6 -5 1 -5 -13z"/>
<path d="M19908 11523 c6 -2 18 -2 25 0 6 3 1 5 -13 5 -14 0 -19 -2 -12 -5z"/>
<path d="M20228 11523 c7 -3 16 -2 19 1 4 3 -2 6 -13 5 -11 0 -14 -3 -6 -6z"/>
<path d="M24180 11519 c0 -5 5 -7 10 -4 6 3 10 8 10 11 0 2 -4 4 -10 4 -5 0
-10 -5 -10 -11z"/>
<path d="M19880 11510 c8 -5 22 -9 30 -9 10 0 8 3 -5 9 -27 12 -43 12 -25 0z"/>
<path d="M20168 11513 c6 -2 18 -2 25 0 6 3 1 5 -13 5 -14 0 -19 -2 -12 -5z"/>
<path d="M23066 11487 c3 -10 9 -15 12 -12 3 3 0 11 -7 18 -10 9 -11 8 -5 -6z"/>
<path d="M24163 11477 c4 -10 7 -23 7 -28 0 -5 5 -9 10 -9 15 0 12 20 -7 38
-16 16 -16 16 -10 -1z"/>
<path d="M24205 11460 c3 -5 10 -10 16 -10 5 0 9 5 9 10 0 6 -7 10 -16 10 -8
0 -12 -4 -9 -10z"/>
<path d="M20428 11453 c7 -3 16 -2 19 1 4 3 -2 6 -13 5 -11 0 -14 -3 -6 -6z"/>
<path d="M20483 11441 c-19 -16 -20 -20 -7 -25 12 -5 14 -14 10 -34 -6 -25 -5
-26 8 -8 11 13 12 24 6 37 -14 26 -12 33 5 19 8 -7 15 -21 15 -31 0 -11 7 -19
15 -19 13 0 13 4 -2 27 -10 15 -17 28 -15 30 5 7 1 23 -5 23 -5 -1 -18 -9 -30
-19z"/>
<path d="M23106 11433 c-3 -6 -3 -13 -1 -15 9 -8 1055 3 1055 12 0 15 -1049
18 -1054 3z"/>
<path d="M24198 11423 c7 -3 16 -2 19 1 4 3 -2 6 -13 5 -11 0 -14 -3 -6 -6z"/>
<path d="M20507 11363 c-4 -3 -7 -11 -7 -17 0 -6 5 -5 12 2 6 6 9 14 7 17 -3
3 -9 2 -12 -2z"/>
<path d="M23166 11310 c8 -43 14 -51 14 -19 0 19 2 21 10 9 9 -13 10 -13 10 0
0 8 -5 22 -10 30 -9 13 -10 13 -10 0 0 -13 -1 -13 -10 0 -7 11 -8 5 -4 -20z"/>
<path d="M20567 11316 c-3 -8 -3 -24 0 -35 l6 -22 14 21 c12 18 12 22 0 35
-13 12 -16 12 -20 1z"/>
<path d="M19591 11254 c0 -11 3 -14 6 -6 3 7 2 16 -1 19 -3 4 -6 -2 -5 -13z"/>
<path d="M23165 11250 c3 -5 8 -10 11 -10 2 0 4 5 4 10 0 6 -5 10 -11 10 -5 0
-7 -4 -4 -10z"/>
<path d="M24242 11120 c0 -14 2 -19 5 -12 2 6 2 18 0 25 -3 6 -5 1 -5 -13z"/>
<path d="M23148 11103 c7 -3 16 -2 19 1 4 3 -2 6 -13 5 -11 0 -14 -3 -6 -6z"/>
<path d="M23105 11072 c-5 -4 -11 -18 -13 -32 -1 -18 1 -21 7 -11 7 11 9 11
13 0 3 -8 5 1 5 19 0 17 -1 32 -1 32 -1 0 -5 -4 -11 -8z"/>
<path d="M23055 11030 c-3 -5 -1 -10 4 -10 6 0 11 5 11 10 0 6 -2 10 -4 10 -3
0 -8 -4 -11 -10z"/>
<path d="M19591 10964 c0 -11 3 -14 6 -6 3 7 2 16 -1 19 -3 4 -6 -2 -5 -13z"/>
<path d="M20800 10961 c0 -10 19 -25 25 -20 1 2 -3 10 -11 17 -8 7 -14 8 -14
3z"/>
<path d="M20960 10930 c0 -5 5 -10 11 -10 5 0 7 5 4 10 -3 6 -8 10 -11 10 -2
0 -4 -4 -4 -10z"/>
<path d="M24185 10930 c3 -5 8 -10 11 -10 2 0 4 5 4 10 0 6 -5 10 -11 10 -5 0
-7 -4 -4 -10z"/>
<path d="M22858 10913 c7 -3 16 -2 19 1 4 3 -2 6 -13 5 -11 0 -14 -3 -6 -6z"/>
<path d="M20970 10895 c8 -9 7 -15 -2 -19 -7 -3 -2 -3 12 0 14 2 46 1 71 -4
30 -6 53 -5 65 1 10 6 59 10 109 10 82 1 85 1 40 9 -31 5 -78 4 -126 -3 -55
-9 -83 -9 -105 -1 -27 11 -27 11 11 5 22 -3 37 -2 33 1 -3 4 -31 9 -62 11 -45
2 -54 0 -46 -10z"/>
<path d="M22561 10896 c2 -2 29 -6 59 -9 34 -3 47 -2 35 3 -19 8 -103 14 -94
6z"/>
<path d="M22700 10891 c22 -7 20 -9 -20 -14 -25 -4 -63 -9 -85 -11 -22 -2 8
-3 67 -2 84 1 102 3 86 12 -16 9 -18 13 -7 17 8 3 -4 5 -26 5 -33 0 -36 -1
-15 -7z"/>
<path d="M21175 10870 c-27 -7 -28 -8 -5 -8 14 0 34 3 45 8 25 11 2 11 -40 0z"/>
<path d="M20998 10863 c7 -3 16 -2 19 1 4 3 -2 6 -13 5 -11 0 -14 -3 -6 -6z"/>
<path d="M22808 10863 c7 -3 16 -2 19 1 4 3 -2 6 -13 5 -11 0 -14 -3 -6 -6z"/>
<path d="M19625 10850 c-3 -5 -1 -10 4 -10 6 0 11 5 11 10 0 6 -2 10 -4 10 -3
0 -8 -4 -11 -10z"/>
<path d="M19652 10848 c5 -15 28 -23 28 -10 0 5 -7 13 -16 16 -10 4 -14 1 -12
-6z"/>
<path d="M19669 10793 c-3 -18 -1 -38 4 -45 6 -9 7 -8 4 4 -3 9 -2 18 2 20 4
2 4 14 1 28 -6 24 -7 24 -11 -7z"/>
<path d="M24083 10638 c7 -20 -11 -28 -55 -23 -22 3 -28 2 -19 -4 12 -8 12
-13 3 -24 -15 -18 -13 -99 2 -94 6 3 10 9 9 14 -1 5 11 24 28 42 28 31 28 32
7 29 -15 -2 -24 -11 -26 -25 -4 -27 -22 -31 -22 -5 0 23 30 52 53 52 9 0 19 5
22 10 4 6 12 7 18 3 7 -4 5 2 -3 13 -22 29 -24 30 -17 12z"/>
<path d="M19945 10450 c-2 -4 3 -17 11 -29 12 -17 19 -19 29 -11 20 16 11 43
-14 45 -12 1 -24 -1 -26 -5z m41 -15 c-3 -20 -16 -31 -16 -13 0 13 8 28 16 28
1 0 1 -7 0 -15z"/>
<path d="M20112 10372 c-9 -6 -5 -15 16 -35 l28 -27 -1 33 c0 33 -18 45 -43
29z m38 -12 c0 -5 -7 -10 -16 -10 -8 0 -12 5 -9 10 3 6 10 10 16 10 5 0 9 -4
9 -10z"/>
<path d="M23769 10378 c-1 -2 -2 -15 -3 -30 -2 -28 7 -37 19 -18 3 6 11 10 16
10 5 0 1 -12 -8 -27 l-18 -28 32 25 c37 29 44 65 13 67 -11 1 -19 -3 -17 -9 1
-6 -4 -13 -12 -16 -10 -3 -12 0 -8 12 4 9 2 16 -3 16 -6 0 -11 -1 -11 -2z m61
-28 c0 -5 -4 -10 -10 -10 -5 0 -10 5 -10 10 0 6 5 10 10 10 6 0 10 -4 10 -10z"/>
<path d="M20140 10289 c0 -5 5 -7 10 -4 6 3 10 8 10 11 0 2 -4 4 -10 4 -5 0
-10 -5 -10 -11z"/>
<path d="M23527 10209 c7 -7 15 -10 18 -7 3 3 -2 9 -12 12 -14 6 -15 5 -6 -5z"/>
<path d="M23575 10210 c19 -8 19 -9 1 -9 -11 -1 -17 -4 -13 -7 8 -8 47 5 47
17 0 5 -12 9 -27 8 -25 0 -26 -1 -8 -9z"/>
<path d="M23520 10182 c0 -4 12 -9 28 -10 21 -1 23 0 12 8 -18 12 -40 13 -40
2z"/>
<path d="M20375 10170 c-3 -5 -2 -10 4 -10 5 0 13 5 16 10 3 6 2 10 -4 10 -5
0 -13 -4 -16 -10z"/>
<path d="M20798 10053 c7 -3 16 -2 19 1 4 3 -2 6 -13 5 -11 0 -14 -3 -6 -6z"/>
<path d="M20846 10051 c-19 -7 -19 -8 3 -14 27 -7 53 1 45 14 -6 11 -21 11
-48 0z"/>
<path d="M20928 10053 c7 -3 16 -2 19 1 4 3 -2 6 -13 5 -11 0 -14 -3 -6 -6z"/>
<path d="M21033 10047 c7 -4 48 -5 92 -3 52 3 69 2 50 -3 l-30 -9 30 -2 c30
-2 30 -2 5 -10 -20 -6 -21 -8 -5 -8 11 0 29 3 40 8 19 8 19 9 1 9 -11 1 -17 4
-13 7 9 9 78 -6 72 -16 -3 -4 5 -6 17 -2 21 5 21 6 2 13 -18 7 99 2 139 -6 9
-2 15 1 11 6 -3 5 -31 9 -62 10 -36 0 -50 3 -38 8 10 4 -58 7 -152 7 -93 -1
-165 -5 -159 -9z m244 -3 c-3 -3 -12 -4 -19 -1 -8 3 -5 6 6 6 11 1 17 -2 13
-5z"/>
<path d="M21393 10053 c15 -2 37 -2 50 0 12 2 0 4 -28 4 -27 0 -38 -2 -22 -4z"/>
<path d="M21515 10050 c-3 -5 -18 -11 -33 -11 -21 -1 -18 -3 13 -10 52 -10
159 -10 210 1 39 8 39 8 -15 7 -30 0 -75 2 -100 6 -32 4 -37 4 -15 -2 29 -8
28 -9 -14 -10 -34 -1 -42 2 -37 14 6 17 0 20 -9 5z"/>
<path d="M21633 10053 c9 -2 25 -2 35 0 9 3 1 5 -18 5 -19 0 -27 -2 -17 -5z"/>
<path d="M21763 10053 c32 -2 81 -2 110 0 29 2 3 3 -58 3 -60 0 -84 -1 -52 -3z"/>
<path d="M22018 10053 c12 -2 32 -2 45 0 12 2 2 4 -23 4 -25 0 -35 -2 -22 -4z"/>
<path d="M22133 10053 c15 -2 39 -2 55 0 15 2 2 4 -28 4 -30 0 -43 -2 -27 -4z"/>
<path d="M22540 10050 c14 -4 34 -8 45 -8 16 0 15 2 -5 8 -14 4 -34 8 -45 8
-16 0 -15 -2 5 -8z"/>
<path d="M22720 10044 l-85 -13 85 4 c61 3 78 2 60 -5 -23 -9 -23 -9 5 -5 17
3 46 7 65 10 29 4 31 3 10 -4 -16 -6 -19 -9 -8 -10 9 -1 25 -4 35 -7 14 -5 15
-4 4 4 -15 10 50 23 132 25 20 0 34 4 31 8 -4 7 -62 5 -144 -6 -22 -3 -28 -2
-17 3 28 12 -76 10 -173 -4z"/>
<path d="M23085 10050 c3 -5 18 -10 32 -10 32 0 28 5 -10 14 -19 4 -26 3 -22
-4z"/>
<path d="M20973 10043 c9 -2 23 -2 30 0 6 3 -1 5 -18 5 -16 0 -22 -2 -12 -5z"/>
<path d="M21858 10033 c56 -2 148 -2 205 0 56 1 10 3 -103 3 -113 0 -159 -2
-102 -3z"/>
<path d="M22193 10033 c9 -2 25 -2 35 0 9 3 1 5 -18 5 -19 0 -27 -2 -17 -5z"/>
<path d="M21708 10013 c12 -2 30 -2 40 0 9 3 -1 5 -23 4 -22 0 -30 -2 -17 -4z"/>
<path d="M21858 10013 c12 -2 32 -2 45 0 12 2 2 4 -23 4 -25 0 -35 -2 -22 -4z"/>
<path d="M22058 10013 c34 -2 88 -2 120 0 31 2 3 3 -63 3 -66 0 -92 -1 -57 -3z"/>
<path d="M22258 10013 c12 -2 32 -2 45 0 12 2 2 4 -23 4 -25 0 -35 -2 -22 -4z"/>
<path d="M22728 10013 c7 -3 16 -2 19 1 4 3 -2 6 -13 5 -11 0 -14 -3 -6 -6z"/>
<path d="M21483 10003 c9 -2 23 -2 30 0 6 3 -1 5 -18 5 -16 0 -22 -2 -12 -5z"/>
<path d="M21577 10003 c18 -2 50 -2 70 0 21 2 7 4 -32 4 -38 0 -55 -2 -38 -4z"/>
<path d="M26016 11478 c-6 -20 -4 -32 8 -44 10 -9 20 -13 24 -10 3 4 1 10 -5
14 -6 4 -13 21 -15 37 l-4 30 -8 -27z"/>
<path d="M28226 11459 c-3 -22 -3 -46 1 -54 5 -8 9 9 10 41 2 64 -2 69 -11 13z"/>
<path d="M29397 11482 c1 -8 3 -19 3 -25 0 -7 4 -6 10 3 5 8 10 22 10 30 0 12
-2 13 -9 1 -5 -7 -11 -9 -13 -5 -3 5 -3 3 -1 -4z"/>
<path d="M29368 11470 l-3 -25 -562 -3 c-364 -1 -563 -6 -563 -12 0 -7 198
-10 565 -10 430 0 565 3 565 12 0 6 7 3 15 -8 18 -24 18 -19 1 31 -12 35 -14
37 -18 15z"/>
<path d="M28185 11320 c-9 -16 -12 -30 -7 -30 4 0 13 12 19 28 l11 27 1 -27
c1 -17 -7 -32 -21 -42 -16 -11 -18 -16 -7 -16 24 0 39 22 39 57 0 41 -15 42
-35 3z"/>
<path d="M24921 11324 c0 -11 3 -14 6 -6 3 7 2 16 -1 19 -3 4 -6 -2 -5 -13z"/>
<path d="M29366 11304 c-4 -9 -4 -19 -1 -22 2 -3 7 3 11 12 4 9 4 19 1 22 -2
3 -7 -3 -11 -12z"/>
<path d="M24940 11285 c-2 -30 -2 -30 -10 -5 l-8 25 -1 -27 c-1 -15 3 -30 9
-33 11 -7 24 38 17 57 -3 7 -6 0 -7 -17z"/>
<path d="M24942 11218 c-8 -30 8 -104 16 -79 2 5 -2 19 -8 30 -6 12 -7 21 -2
21 5 0 9 14 9 30 0 39 -4 38 -15 -2z"/>
<path d="M26164 11154 c1 -28 6 -49 14 -52 6 -2 12 2 12 8 0 10 4 10 15 0 8
-7 15 -9 15 -5 0 4 7 2 15 -5 8 -7 12 -17 8 -23 -4 -6 -1 -7 6 -3 9 6 8 13 -5
27 -9 10 -21 16 -25 13 -5 -3 -9 0 -9 6 0 7 -6 10 -13 7 -10 -4 -14 4 -14 24
0 16 -4 34 -10 40 -6 6 -9 -6 -9 -37z"/>
<path d="M26254 11058 c-5 -7 -9 -19 -10 -26 -2 -11 1 -11 17 0 11 7 20 17 20
23 1 15 -18 17 -27 3z m21 -8 c-3 -5 -11 -10 -16 -10 -6 0 -7 5 -4 10 3 6 11
10 16 10 6 0 7 -4 4 -10z"/>
<path d="M28062 11034 c-7 -8 -8 -14 -3 -14 10 0 25 19 20 25 -2 1 -10 -3 -17
-11z"/>
<path d="M29208 10995 c-7 -16 -7 -28 2 -41 10 -17 11 -16 6 7 -4 17 0 31 9
39 10 9 15 9 15 1 0 -6 -4 -11 -10 -11 -5 0 -10 -4 -10 -10 0 -18 18 -10 25
10 4 11 11 18 16 15 5 -4 9 -2 9 3 0 5 -12 10 -26 10 -17 0 -29 -8 -36 -23z"/>
<path d="M27795 10879 c-4 -6 -21 -8 -38 -5 -28 5 -29 5 -9 -4 25 -11 72 -4
72 11 0 12 -17 11 -25 -2z"/>
<path d="M26572 10869 c12 -8 152 -9 144 -2 -2 2 -38 5 -80 7 -41 1 -70 -1
-64 -5z"/>
<path d="M27698 10863 c7 -3 16 -2 19 1 4 3 -2 6 -13 5 -11 0 -14 -3 -6 -6z"/>
<path d="M29129 10858 c-1 -2 -2 -18 -4 -36 -3 -32 -2 -32 12 -12 8 11 19 18
24 15 5 -3 6 2 2 11 -4 11 -3 15 5 10 6 -3 13 -2 17 4 3 5 -3 10 -14 10 -12 0
-21 -7 -21 -15 0 -8 -5 -15 -11 -15 -6 0 -9 7 -5 15 4 12 0 23 -5 13z"/>
<path d="M29049 10759 c-8 -16 -8 -24 2 -33 9 -8 10 -8 5 1 -4 7 -2 22 4 33 6
11 8 20 6 20 -3 0 -10 -9 -17 -21z"/>
<path d="M29082 10768 c-17 -17 -15 -33 3 -18 8 7 15 8 15 2 0 -5 -7 -15 -15
-22 -8 -7 -15 -18 -15 -24 0 -6 14 5 30 24 32 37 37 50 19 50 -5 0 -7 -4 -4
-10 3 -5 2 -10 -4 -10 -5 0 -11 5 -13 10 -2 7 -8 6 -16 -2z"/>
<path d="M29008 10693 c7 -3 16 -2 19 1 4 3 -2 6 -13 5 -11 0 -14 -3 -6 -6z"/>
<path d="M28987 10664 c3 -8 2 -22 -2 -31 -7 -16 -9 -15 -16 7 -7 23 -7 22 -6
-8 1 -18 7 -38 13 -43 9 -7 12 -5 10 8 -2 9 5 26 16 37 23 25 23 32 -1 39 -14
3 -18 1 -14 -9z"/>
<path d="M25265 10631 c-3 -5 -2 -12 3 -15 5 -3 9 1 9 9 0 17 -3 19 -12 6z"/>
<path d="M25429 10508 c-10 -30 -2 -52 23 -67 15 -10 25 -21 21 -24 -3 -4 4
-7 16 -7 12 0 20 -4 17 -9 -3 -5 2 -15 11 -22 15 -12 16 -12 8 1 -6 8 -10 28
-10 45 0 28 -2 30 -40 30 -37 0 -40 2 -39 28 1 22 -3 36 -7 25z m78 -75 c0
-16 -7 -16 -30 1 -17 13 -16 14 6 12 13 0 24 -7 24 -13z"/>
<path d="M28725 10449 c-11 -17 1 -21 15 -4 8 9 8 15 2 15 -6 0 -14 -5 -17
-11z"/>
<path d="M28640 10369 c0 -5 5 -7 10 -4 6 3 10 8 10 11 0 2 -4 4 -10 4 -5 0
-10 -5 -10 -11z"/>
<path d="M28490 10290 c-8 -5 -11 -12 -7 -16 4 -4 15 0 24 9 18 18 8 23 -17 7z"/>
<path d="M28568 10293 c7 -3 16 -2 19 1 4 3 -2 6 -13 5 -11 0 -14 -3 -6 -6z"/>
<path d="M25728 10284 c-3 -3 -20 -6 -38 -6 -22 -1 -27 -4 -18 -9 14 -8 88 6
88 16 0 7 -26 6 -32 -1z"/>
<path d="M25720 10245 c7 -8 20 -15 28 -15 13 0 12 3 -4 15 -25 19 -40 19 -24
0z"/>
<path d="M26078 10133 c6 -2 18 -2 25 0 6 3 1 5 -13 5 -14 0 -19 -2 -12 -5z"/>
<path d="M28170 10130 c8 -5 15 -15 15 -21 0 -7 7 -14 15 -16 13 -4 13 -3 0 6
-13 9 -12 11 5 11 16 0 15 3 -9 15 -31 17 -50 20 -26 5z"/>
<path d="M26120 10120 c0 -5 5 -10 10 -10 6 0 10 5 10 10 0 6 -4 10 -10 10 -5
0 -10 -4 -10 -10z"/>
<path d="M26188 10053 c7 -3 16 -2 19 1 4 3 -2 6 -13 5 -11 0 -14 -3 -6 -6z"/>
<path d="M26288 10053 c7 -3 16 -2 19 1 4 3 -2 6 -13 5 -11 0 -14 -3 -6 -6z"/>
<path d="M26553 10053 c15 -2 37 -2 50 0 12 2 0 4 -28 4 -27 0 -38 -2 -22 -4z"/>
<path d="M26902 10053 c147 -2 390 -2 540 0 150 1 30 2 -267 2 -297 0 -420 -1
-273 -2z"/>
<path d="M31500 13185 l0 -565 868 0 c962 0 922 -3 1053 66 91 48 195 156 239
250 79 168 77 334 -6 503 -70 143 -226 263 -381 296 -56 12 -219 15 -920 15
l-853 0 0 -565z"/>
<path d="M34166 11588 c3 -5 10 -6 15 -3 13 9 11 12 -6 12 -8 0 -12 -4 -9 -9z"/>
<path d="M34264 11495 c-8 -34 10 -77 30 -69 24 9 24 27 0 62 l-23 34 -7 -27z
m32 -52 c-11 -11 -26 10 -26 35 l1 27 15 -28 c9 -16 13 -31 10 -34z"/>
<path d="M31442 11472 l-2 -32 -565 2 -565 3 0 -560 c0 -308 -2 -578 -5 -600
-4 -35 -3 -36 4 -10 5 17 9 281 10 588 l1 557 560 0 560 0 0 -554 c0 -305 3
-561 6 -570 3 -9 10 -13 15 -10 5 3 9 -7 9 -22 0 -20 3 -25 11 -17 8 8 8 17 0
32 -8 14 -11 192 -11 602 1 320 -2 584 -5 587 -3 3 -6 -260 -7 -584 l-3 -589
-5 605 c-3 333 -6 590 -8 572z"/>
<path d="M32911 11494 c-1 -6 11 -23 25 -38 15 -14 23 -26 18 -26 -4 0 1 -6
12 -14 12 -9 23 -11 30 -5 7 5 16 9 20 8 5 -1 282 -1 615 0 475 1 608 4 612
14 3 9 -129 12 -642 12 -639 0 -646 0 -647 20 -1 11 -2 24 -3 29 -1 5 -7 3
-15 -3 -11 -9 -15 -9 -19 1 -3 7 -6 8 -6 2z"/>
<path d="M33005 11392 c3 -24 16 -52 24 -52 4 0 7 17 8 38 0 20 -2 31 -4 24
-4 -9 -9 -10 -17 -3 -9 8 -12 6 -11 -7z"/>
<path d="M34400 11215 c0 -5 5 -17 10 -25 5 -8 10 -10 10 -5 0 6 -5 17 -10 25
-5 8 -10 11 -10 5z"/>
<path d="M33136 11168 c3 -5 10 -5 16 -2 8 5 9 1 5 -10 -6 -14 -3 -15 13 -6
29 15 25 26 -9 26 -17 0 -28 -3 -25 -8z"/>
<path d="M34484 11148 c2 -18 4 -37 5 -41 2 -12 19 1 31 22 7 15 6 18 -8 17
-10 0 -16 6 -16 17 1 9 -2 17 -7 17 -5 0 -7 -15 -5 -32z"/>
<path d="M34564 11034 c-1 -24 1 -31 7 -23 6 10 9 4 9 -16 0 -33 15 -55 37
-55 8 0 6 7 -7 20 -11 11 -21 29 -21 40 -1 11 -3 25 -4 30 -1 6 -3 17 -4 25
-2 30 -16 14 -17 -21z"/>
<path d="M34560 10960 c0 -11 4 -20 9 -20 5 0 7 9 4 20 -3 11 -7 20 -9 20 -2
0 -4 -9 -4 -20z"/>
<path d="M34674 10886 c-4 -9 -4 -20 0 -23 3 -4 6 0 6 8 0 12 2 12 10 -1 5 -8
11 -12 14 -10 2 3 -2 14 -10 24 -12 17 -14 18 -20 2z"/>
<path d="M33356 10844 c-10 -25 -1 -27 19 -4 15 17 16 20 3 20 -9 0 -19 -7
-22 -16z"/>
<path d="M33422 10843 c-8 -15 -9 -24 -1 -28 15 -10 21 0 17 27 l-3 23 -13
-22z"/>
<path d="M34720 10820 c0 -5 5 -10 11 -10 5 0 7 5 4 10 -3 6 -8 10 -11 10 -2
0 -4 -4 -4 -10z"/>
<path d="M33395 10769 c-4 -6 -5 -12 -2 -15 2 -3 7 2 10 11 7 17 1 20 -8 4z"/>
<path d="M33416 10761 c-4 -6 -3 -18 2 -27 8 -15 10 -14 16 2 8 20 -8 42 -18
25z"/>
<path d="M33492 10675 c-6 -14 -8 -33 -5 -42 5 -13 9 -7 14 22 8 48 6 53 -9
20z"/>
<path d="M34920 10501 c0 -5 5 -13 10 -16 6 -3 10 -2 10 4 0 5 -4 13 -10 16
-5 3 -10 2 -10 -4z"/>
<path d="M33641 10366 c-12 -14 -12 -16 4 -9 14 5 17 3 12 -10 -9 -24 0 -21
14 4 6 13 7 19 1 15 -6 -3 -12 -1 -14 5 -2 7 -9 5 -17 -5z"/>
<path d="M34977 10353 c-4 -3 -7 -11 -7 -17 0 -6 5 -5 12 2 6 6 9 14 7 17 -3
3 -9 2 -12 -2z"/>
<path d="M33666 10322 c-2 -4 -1 -14 4 -22 7 -11 9 -9 7 8 -1 24 -3 26 -11 14z"/>
<path d="M31442 10250 c0 -14 2 -19 5 -12 2 6 2 18 0 25 -3 6 -5 1 -5 -13z"/>
<path d="M31450 10215 c-7 -9 -9 -26 -5 -45 5 -21 3 -30 -6 -30 -19 0 -80 -51
-76 -63 2 -7 -7 -17 -21 -24 -29 -16 -35 -16 -27 -3 3 6 -1 10 -9 10 -21 0
-21 -16 -1 -24 22 -8 109 34 96 47 -6 6 -4 15 6 26 13 12 17 13 21 3 9 -27 34
27 27 59 -4 18 -2 36 5 44 7 8 10 15 7 15 -2 0 -10 -7 -17 -15z m-60 -135 c0
-5 -4 -10 -10 -10 -5 0 -10 5 -10 10 0 6 5 10 10 10 6 0 10 -4 10 -10z"/>
<path d="M30292 10196 c-8 -18 -6 -25 9 -34 12 -8 19 -8 19 -2 0 5 -4 10 -10
10 -5 0 -10 7 -10 16 0 8 5 12 10 9 6 -3 10 -2 10 4 0 21 -18 19 -28 -3z"/>
<path d="M31365 10129 c-11 -17 -2 -18 19 -3 17 12 17 14 4 14 -9 0 -20 -5
-23 -11z"/>
<path d="M30880 10050 c190 -4 359 -11 375 -15 l30 -9 -25 -7 c-19 -5 -15 -6
17 -6 34 1 39 3 25 13 -36 24 -88 28 -422 29 l-345 1 345 -6z"/>
<path d="M30883 10023 c-204 -2 -323 -7 -323 -13 0 -11 617 -15 644 -4 16 6
23 26 9 22 -5 -2 -153 -4 -330 -5z"/>
<path d="M37830 13790 c-237 -51 -425 -181 -512 -353 -21 -40 -293 -1024 -373
-1349 l-7 -28 1031 0 1031 0 0 875 0 875 -542 -1 c-489 0 -551 -2 -628 -19z"/>
<path d="M35565 11509 c-10 -30 -2 -32 12 -3 6 13 7 24 3 24 -5 0 -12 -9 -15
-21z"/>
<path d="M40200 11469 c0 -17 -4 -28 -10 -24 -5 3 -10 -1 -10 -9 0 -9 4 -16
10 -16 6 0 11 -199 13 -562 l2 -563 3 603 c1 331 0 602 -3 602 -3 0 -5 -14 -5
-31z"/>
<path d="M35530 11460 c0 -5 4 -10 9 -10 6 0 13 5 16 10 3 6 -1 10 -9 10 -9 0
-16 -4 -16 -10z"/>
<path d="M35570 11462 c-1 -44 -106 -42 2314 -42 l2286 0 -1 23 c0 12 -3 16
-6 10 -4 -10 -470 -13 -2285 -13 -2160 0 -2281 1 -2294 18 -9 11 -13 13 -14 4z"/>
<path d="M35506 11375 c-3 -8 -1 -15 4 -15 6 0 10 7 10 15 0 8 -2 15 -4 15 -2
0 -6 -7 -10 -15z"/>
<path d="M35473 11234 c-6 -14 -9 -32 -6 -40 8 -21 30 -17 36 6 3 11 1 20 -3
20 -5 0 -10 9 -12 20 -3 18 -4 17 -15 -6z m17 -30 c0 -8 -4 -12 -10 -9 -5 3
-10 10 -10 16 0 5 5 9 10 9 6 0 10 -7 10 -16z"/>
<path d="M36646 11165 c-3 -8 -3 -15 0 -15 3 0 12 7 20 15 13 13 13 15 1 15
-8 0 -17 -7 -21 -15z"/>
<path d="M35431 10974 c0 -11 3 -14 6 -6 3 7 2 16 -1 19 -3 4 -6 -2 -5 -13z"/>
<path d="M39021 10954 c0 -11 3 -14 6 -6 3 7 2 16 -1 19 -3 4 -6 -2 -5 -13z"/>
<path d="M39029 10884 c0 -25 -2 -26 -8 -9 -8 19 -14 -53 -25 -260 -3 -55 -2
-62 5 -30 5 26 6 -2 4 -78 -2 -64 -2 -124 2 -132 9 -26 32 14 32 55 l-1 35 -8
-38 c-4 -20 -10 -40 -13 -44 -10 -9 -9 25 5 134 9 75 9 98 0 101 -14 4 -17
162 -3 162 9 0 24 120 16 128 -3 3 -5 -8 -6 -24z"/>
<path d="M35255 10420 c13 -54 17 -120 6 -120 -7 0 -9 10 -5 28 4 15 3 24 -1
19 -12 -10 -16 -97 -5 -97 28 0 36 137 9 178 -8 14 -9 12 -4 -8z"/>
<path d="M35237 10383 c-11 -20 -18 -67 -8 -58 11 11 26 65 18 65 -3 0 -8 -3
-10 -7z"/>
<path d="M36406 10365 c-3 -9 -6 -22 -5 -28 0 -7 5 -1 10 12 5 13 8 26 5 28
-2 2 -6 -3 -10 -12z"/>
<path d="M36436 10364 c-9 -8 -16 -25 -16 -37 0 -19 2 -18 16 8 8 16 21 33 27
37 9 6 9 8 0 8 -6 0 -19 -7 -27 -16z"/>
<path d="M39002 10310 c0 -19 2 -27 5 -17 2 9 2 25 0 35 -3 9 -5 1 -5 -18z"/>
<path d="M39022 10320 c0 -14 2 -19 5 -12 2 6 2 18 0 25 -3 6 -5 1 -5 -13z"/>
<path d="M36406 10252 c-2 -4 -1 -14 3 -21 6 -10 10 -9 14 3 6 16 -8 32 -17
18z"/>
<path d="M38992 10240 c0 -14 2 -19 5 -12 2 6 2 18 0 25 -3 6 -5 1 -5 -13z"/>
<path d="M36324 10195 c-3 -13 -4 -30 -1 -37 3 -7 6 -2 6 13 1 14 6 30 13 37
9 9 9 12 0 12 -6 0 -14 -11 -18 -25z"/>
<path d="M36362 10204 c-14 -10 -22 -25 -21 -42 1 -26 1 -26 11 6 6 17 17 32
24 32 8 0 14 5 14 10 0 13 -2 13 -28 -6z"/>
<path d="M40150 10129 c0 -5 5 -7 10 -4 6 3 10 8 10 11 0 2 -4 4 -10 4 -5 0
-10 -5 -10 -11z"/>
<path d="M36241 10068 c-1 -22 18 -33 32 -19 9 9 8 11 -5 6 -11 -4 -18 0 -21
12 -4 15 -5 16 -6 1z"/>
<path d="M39108 10068 c-8 -21 17 -32 40 -18 14 9 13 10 -5 5 -15 -4 -22 -1
-25 12 -3 16 -4 16 -10 1z"/>
<path d="M36098 10053 c7 -3 16 -2 19 1 4 3 -2 6 -13 5 -11 0 -14 -3 -6 -6z"/>
<path d="M39198 10053 c6 -2 18 -2 25 0 6 3 1 5 -13 5 -14 0 -19 -2 -12 -5z"/>
<path d="M35495 10043 c132 -6 625 -8 603 -1 -13 3 -167 6 -343 5 -176 0 -293
-2 -260 -4z"/>
<path d="M36093 10013 c9 -2 23 -2 30 0 6 3 -1 5 -18 5 -16 0 -22 -2 -12 -5z"/>
<path d="M42300 12763 c0 -555 -3 -1195 -6 -1423 -3 -228 -3 -422 0 -430 5
-13 88 -15 665 -13 628 2 662 3 741 22 46 12 92 21 104 21 12 0 39 9 61 20 27
14 41 16 46 9 5 -8 12 -8 25 1 16 10 16 11 2 6 -22 -7 -24 10 -2 18 22 9 26 8
18 -5 -4 -7 -1 -10 7 -7 8 3 13 12 11 19 -3 11 -1 12 10 1 11 -11 11 -14 0
-21 -11 -7 -11 -9 1 -14 12 -4 15 1 12 22 -3 24 2 30 42 50 37 18 44 19 39 6
-3 -9 -2 -13 4 -10 6 3 10 1 10 -4 0 -6 15 -10 34 -8 28 2 33 6 33 27 0 14 -2
19 -4 13 -3 -7 -11 -13 -19 -13 -9 0 -12 -4 -9 -10 9 -14 -8 -13 -23 2 -18 18
-15 23 29 53 23 15 38 22 35 16 -5 -7 -1 -8 9 -5 9 4 13 9 11 12 -6 5 24 31
37 32 15 0 7 -19 -10 -22 -14 -3 -14 -5 2 -18 11 -8 16 -10 12 -3 -4 6 -1 13
5 16 10 3 10 9 0 27 -8 12 -9 19 -3 15 6 -3 11 -2 11 4 0 12 60 46 75 42 6 -1
5 3 -2 9 -8 9 -3 20 24 46 38 37 57 47 28 14 -18 -20 -18 -20 3 -17 12 2 25 7
29 12 5 4 2 5 -4 1 -7 -4 -13 -3 -13 1 0 5 6 15 13 22 10 11 10 13 0 7 -19
-11 -16 8 5 34 13 16 23 20 33 15 18 -12 49 -14 49 -4 0 4 -4 10 -10 14 -5 3
-7 12 -4 19 3 8 1 17 -5 21 -7 4 -5 14 5 31 9 13 19 22 22 19 3 -3 -3 -15 -13
-27 -11 -13 -6 -10 10 6 19 18 26 30 18 33 -14 5 10 51 34 66 7 4 13 13 13 20
0 8 -4 6 -11 -3 -13 -19 -9 -8 20 55 13 28 25 55 27 60 1 6 13 49 27 96 14 48
30 130 36 182 14 122 14 653 1 772 -52 460 -365 850 -798 995 -174 58 -203 60
-908 60 l-644 0 0 -1007z m2156 -1385 c-3 -25 -18 -27 -22 -3 -1 8 2 13 7 9 5
-3 9 0 9 5 0 6 2 11 5 11 3 0 3 -10 1 -22z"/>
<path d="M44525 11500 c-10 -11 -16 -22 -14 -24 2 -2 12 7 22 20 22 29 17 32
-8 4z"/>
<path d="M45686 11485 c-9 -26 -7 -32 5 -12 6 10 9 21 6 23 -2 3 -7 -2 -11
-11z"/>
<path d="M44530 11467 c-8 -12 -18 -27 -22 -32 -4 -7 2 -11 15 -12 12 0 279
-1 594 -2 452 -1 572 -4 569 -13 -1 -7 -1 -10 1 -5 7 11 31 8 36 -5 3 -7 5 -4
5 7 0 11 3 31 7 45 l6 25 -14 -25 -15 -24 -5 24 c-4 23 -4 23 -6 -4 -1 -23 -4
-26 -15 -17 -10 8 -166 11 -575 9 -495 -3 -560 -1 -556 12 2 8 1 20 -3 27 -5
9 -12 6 -22 -10z m11 -24 c-8 -15 -10 -15 -11 -2 0 17 10 32 18 25 2 -3 -1
-13 -7 -23z"/>
<path d="M42274 11200 c0 -157 2 -221 3 -142 2 78 2 206 0 285 -1 78 -3 14 -3
-143z"/>
<path d="M41684 11443 c-484 -3 -563 -5 -568 -18 -8 -21 -9 -1095 -1 -1103 4
-4 6 7 4 23 -1 17 -1 265 -1 553 l2 522 565 0 c496 0 565 2 565 15 0 8 -1 14
-2 13 -2 -2 -256 -4 -564 -5z"/>
<path d="M45681 11304 c0 -11 3 -14 6 -6 3 7 2 16 -1 19 -3 4 -6 -2 -5 -13z"/>
<path d="M44280 11190 c-12 -8 -10 -9 7 -7 12 2 26 6 29 10 11 11 -19 8 -36
-3z"/>
<path d="M45600 11135 c0 -8 2 -15 4 -15 2 0 6 7 10 15 3 8 1 15 -4 15 -6 0
-10 -7 -10 -15z"/>
<path d="M45524 11066 c-1 -25 0 -26 9 -10 5 11 16 24 24 30 11 10 10 12 -9
10 -18 -1 -23 -7 -24 -30z"/>
<path d="M44124 11075 c-10 -8 -14 -14 -9 -14 6 0 19 6 29 14 11 8 15 15 10
15 -6 0 -19 -7 -30 -15z"/>
<path d="M45541 11045 c-11 -20 -16 -37 -10 -40 5 -4 14 6 20 22 5 15 15 30
21 34 7 4 7 9 0 13 -6 3 -19 -10 -31 -29z"/>
<path d="M45457 11005 c-10 -7 -17 -20 -15 -29 2 -11 11 -8 38 14 29 24 32 29
15 29 -11 0 -28 -6 -38 -14z"/>
<path d="M43932 10956 c-20 -12 -19 -13 21 -12 37 1 41 3 28 13 -19 15 -20 15
-49 -1z"/>
<path d="M43865 10950 c-13 -6 -15 -9 -5 -9 8 0 22 4 30 9 18 12 2 12 -25 0z"/>
<path d="M42247 10927 c-7 -19 12 -47 32 -47 6 0 11 -4 11 -10 0 -13 1278 -7
1340 6 25 6 56 6 70 2 24 -7 24 -8 -3 -4 -15 2 -30 -1 -33 -6 -3 -5 17 -7 45
-6 28 2 51 6 51 9 0 9 -27 19 -53 20 -20 1 -20 2 3 9 51 16 -10 10 -92 -10
-79 -19 -114 -20 -693 -18 l-610 3 600 5 600 6 -613 -1 c-336 0 -612 3 -612 8
0 4 -6 7 -14 7 -8 0 -16 10 -18 23 -3 20 -4 20 -11 4z"/>
<path d="M45454 10928 c-4 -7 -9 -21 -9 -32 -2 -17 -1 -17 10 -3 7 9 15 14 18
11 3 -3 4 1 3 10 -3 23 -13 29 -22 14z"/>
<path d="M45428 10850 c-16 -25 -33 -26 -24 -2 6 15 6 16 -9 1 -16 -15 -11
-54 6 -44 12 8 52 65 45 65 -3 0 -11 -9 -18 -20z"/>
<path d="M45250 10690 c0 -5 5 -10 10 -10 6 0 10 5 10 10 0 6 -4 10 -10 10 -5
0 -10 -4 -10 -10z"/>
<path d="M45154 10576 c-15 -12 -17 -17 -6 -27 10 -11 12 -10 12 4 0 9 7 17
15 17 8 0 15 5 15 10 0 14 -13 12 -36 -4z"/>
<path d="M45103 10537 c-13 -13 -23 -29 -23 -37 0 -11 -3 -11 -12 -2 -8 8 -8
15 2 27 16 19 3 20 -16 1 -12 -13 -12 -17 1 -30 19 -19 19 -30 0 -22 -8 3 -14
0 -12 -7 1 -7 -6 -11 -15 -9 -9 1 -19 -2 -23 -8 -3 -5 -11 -10 -16 -10 -6 0
-8 4 -5 8 3 5 -1 9 -9 9 -21 0 -18 -9 10 -30 20 -14 24 -15 19 -2 -3 8 -1 16
5 16 6 1 15 2 21 3 20 2 68 50 63 63 -6 17 13 17 21 1 3 -7 4 -4 3 7 -1 11 3
19 10 18 7 -2 10 4 7 12 -4 8 -7 15 -8 14 0 0 -11 -10 -23 -22z"/>
<path d="M44734 10292 c3 -6 2 -12 -4 -14 -6 -2 -1 -9 11 -16 12 -8 18 -9 15
-4 -3 6 0 12 6 14 8 3 4 10 -11 17 -13 7 -21 8 -17 3z"/>
<path d="M41154 10191 l-2 -26 11 23 11 23 12 -23 12 -23 -1 26 c-3 36 -41 36
-43 0z"/>
<path d="M41191 10122 c8 -12 15 -18 17 -12 2 5 8 10 14 10 6 0 8 -6 5 -13 -7
-19 19 -39 31 -24 23 30 24 41 2 22 -13 -11 -21 -15 -17 -9 4 6 -2 19 -13 29
-14 12 -20 14 -20 5 0 -10 -4 -9 -17 1 -15 13 -15 12 -2 -9z"/>
<path d="M44320 10131 c0 -5 9 -7 20 -4 11 3 20 7 20 9 0 2 -9 4 -20 4 -11 0
-20 -4 -20 -9z"/>
<path d="M44380 10130 c0 -5 -8 -11 -17 -13 -10 -3 -3 -4 15 -3 40 3 61 20 26
22 -13 1 -24 -2 -24 -6z"/>
<path d="M42640 10050 l1125 -5 -1167 0 c-645 0 -1164 -4 -1161 -9 3 -4 -5 -5
-18 -2 -23 7 -24 7 -4 -9 12 -9 21 -12 23 -5 3 7 380 10 1185 10 1055 0 1179
2 1153 15 -25 13 -171 15 -1145 13 l-1116 -3 1125 -5z"/>
<path d="M43830 10049 c14 -4 50 -7 81 -8 30 -1 60 -6 66 -12 6 -6 17 -9 25
-6 8 3 4 9 -12 16 -25 11 -22 11 40 -4 l25 -6 -25 12 c-14 6 -70 12 -125 13
-55 1 -89 -1 -75 -5z"/>
<path d="M44038 10053 c7 -3 16 -2 19 1 4 3 -2 6 -13 5 -11 0 -14 -3 -6 -6z"/>
<path d="M44076 10051 c-4 -5 3 -7 14 -4 23 6 26 13 6 13 -8 0 -17 -4 -20 -9z"/>
<path d="M43818 10033 c7 -3 16 -2 19 1 4 3 -2 6 -13 5 -11 0 -14 -3 -6 -6z"/>
<path d="M41520 10010 c0 -7 378 -10 1178 -9 647 0 1168 5 1157 9 -30 13
-2335 12 -2335 0z"/>
<path d="M48640 13795 c-75 -15 -177 -49 -235 -78 -122 -61 -243 -173 -293
-273 -18 -36 -64 -187 -117 -384 -47 -179 -126 -474 -176 -656 -49 -183 -89
-335 -89 -338 0 -3 464 -6 1030 -6 l1030 0 0 875 0 875 -542 -1 c-404 -1 -560
-4 -608 -14z"/>
<path d="M46320 11430 c0 -7 780 -10 2320 -10 1540 0 2320 3 2320 10 0 7 -780
10 -2320 10 -1540 0 -2320 -3 -2320 -10z"/>
<path d="M46311 11224 c0 -11 3 -14 6 -6 3 7 2 16 -1 19 -3 4 -6 -2 -5 -13z"/>
<path d="M46290 11203 c0 -13 5 -23 10 -23 13 0 13 11 0 30 -8 12 -10 11 -10
-7z"/>
<path d="M46271 11194 c0 -11 3 -14 6 -6 3 7 2 16 -1 19 -3 4 -6 -2 -5 -13z"/>
<path d="M49801 11146 l-1 -40 21 22 c11 13 18 30 16 40 -4 16 -5 16 -6 0 0
-10 -5 -18 -10 -18 -5 0 -12 8 -14 18 -3 9 -5 -1 -6 -22z"/>
<path d="M49796 10938 c-10 -280 -15 -590 -9 -584 3 3 9 159 14 348 5 189 12
355 15 371 4 15 2 27 -4 27 -6 0 -12 -64 -16 -162z"/>
<path d="M49821 10988 c0 -18 4 -55 8 -83 7 -45 8 -42 8 33 0 45 -4 82 -9 82
-4 0 -8 -15 -7 -32z"/>
<path d="M47367 10933 c-3 -7 -3 -72 2 -146 1 -24 21 -11 21 14 0 11 -4 18 -8
15 -5 -3 -8 24 -7 60 1 64 0 71 -8 57z"/>
<path d="M49813 10730 c0 -102 2 -174 4 -160 2 14 8 34 14 45 5 11 8 54 6 95
l-3 75 -4 -85 c-4 -75 -5 -67 -10 65 l-6 150 -1 -185z"/>
<path d="M46147 10809 c-3 -11 -3 -35 0 -53 3 -19 1 -36 -5 -40 -6 -4 -8 -22
-5 -44 11 -71 18 -51 19 54 1 57 1 104 -1 104 -1 0 -5 -9 -8 -21z"/>
<path d="M46127 10753 c-4 -3 -7 -11 -7 -17 0 -6 5 -5 12 2 6 6 9 14 7 17 -3
3 -9 2 -12 -2z"/>
<path d="M47301 10606 c3 -28 -2 -47 -11 -41 -6 4 -8 -10 -6 -35 5 -51 17 -67
15 -19 -1 19 5 50 14 70 14 30 14 36 1 36 -8 0 -14 -5 -13 -11z"/>
<path d="M49810 10482 c0 -23 4 -42 9 -42 6 0 7 17 4 38 -8 51 -13 53 -13 4z"/>
<path d="M46044 10406 c18 -28 21 -72 6 -81 -5 -3 -10 -12 -10 -18 0 -7 4 -6
10 3 9 13 11 13 20 0 8 -11 9 -4 5 25 -11 72 -15 83 -31 89 -15 6 -15 4 0 -18z"/>
<path d="M49802 10405 c0 -16 2 -22 5 -12 2 9 2 23 0 30 -3 6 -5 -1 -5 -18z"/>
<path d="M46030 10376 c0 -8 -3 -21 -6 -30 -3 -9 -2 -16 4 -16 13 0 22 49 11
56 -5 3 -9 -1 -9 -10z"/>
<path d="M47250 10371 c0 -5 5 -13 10 -16 6 -3 10 -2 10 4 0 5 -4 13 -10 16
-5 3 -10 2 -10 -4z"/>
<path d="M49822 10360 c0 -14 2 -19 5 -12 2 6 2 18 0 25 -3 6 -5 1 -5 -13z"/>
<path d="M50975 10290 c3 -5 8 -10 11 -10 2 0 4 5 4 10 0 6 -5 10 -11 10 -5 0
-7 -4 -4 -10z"/>
<path d="M50961 10264 c0 -11 3 -14 6 -6 3 7 2 16 -1 19 -3 4 -6 -2 -5 -13z"/>
<path d="M49831 10248 c0 -9 -4 -25 -7 -35 -5 -17 -5 -17 6 0 6 10 9 25 7 35
-4 15 -5 15 -6 0z"/>
<path d="M50972 10239 c-7 -11 -11 -23 -9 -25 7 -7 29 24 25 36 -2 6 -9 1 -16
-11z"/>
<path d="M49827 10183 c-4 -3 -7 -18 -7 -31 0 -32 13 -20 15 13 1 28 1 28 -8
18z"/>
<path d="M46020 10128 c0 -17 31 -48 48 -48 7 0 12 5 12 10 0 6 -4 10 -10 10
-5 0 -18 10 -30 22 -15 16 -20 18 -20 6z"/>
<path d="M47045 10129 c-11 -17 1 -21 15 -4 8 9 8 15 2 15 -6 0 -14 -5 -17
-11z"/>
<path d="M49890 10133 c8 -3 19 -11 23 -17 6 -7 7 -6 4 4 -2 8 -12 16 -23 17
-13 2 -15 1 -4 -4z"/>
<path d="M49998 10053 c6 -2 18 -2 25 0 6 3 1 5 -13 5 -14 0 -19 -2 -12 -5z"/>
<path d="M46888 10013 c6 -2 18 -2 25 0 6 3 1 5 -13 5 -14 0 -19 -2 -12 -5z"/>
<path d="M33080 11251 c0 -6 5 -13 10 -16 6 -3 10 1 10 9 0 9 -4 16 -10 16 -5
0 -10 -4 -10 -9z"/>
<path d="M28805 10430 c-3 -6 1 -7 9 -4 18 7 21 14 7 14 -6 0 -13 -4 -16 -10z"/>
<path d="M26523 10003 c9 -2 23 -2 30 0 6 3 -1 5 -18 5 -16 0 -22 -2 -12 -5z"/>
<path d="M36104 8596 c-47 -21 -92 -83 -117 -161 -29 -94 -31 -306 -3 -442 27
-137 30 -139 111 -67 68 60 159 172 190 233 41 82 37 249 -9 339 -25 50 -77
102 -101 102 -7 0 -19 2 -27 5 -7 2 -27 -2 -44 -9z"/>
<path d="M25160 8790 c0 -5 5 -10 10 -10 6 0 10 5 10 10 0 6 -4 10 -10 10 -5
0 -10 -4 -10 -10z"/>
<path d="M28513 8705 c0 -22 2 -30 4 -17 2 12 2 30 0 40 -3 9 -5 -1 -4 -23z"/>
<path d="M28105 8502 c-22 -8 -56 -28 -76 -43 -20 -16 -39 -26 -43 -24 -3 3
-4 2 -1 -1 2 -4 -15 -34 -38 -68 -138 -199 -221 -657 -148 -821 41 -92 117
-99 229 -21 121 83 205 179 285 326 38 69 73 201 101 376 22 142 21 176 -9
212 -19 23 -22 32 -12 42 10 12 9 12 -3 3 -12 -9 -29 -7 -75 9 -79 26 -159 31
-210 10z"/>
<path d="M20380 8711 c0 -6 4 -13 10 -16 6 -3 7 1 4 9 -7 18 -14 21 -14 7z"/>
<path d="M39581 8714 c0 -11 3 -14 6 -6 3 7 2 16 -1 19 -3 4 -6 -2 -5 -13z"/>
<path d="M39571 8664 c0 -11 3 -14 6 -6 3 7 2 16 -1 19 -3 4 -6 -2 -5 -13z"/>
<path d="M40521 8654 c0 -11 3 -14 6 -6 3 7 2 16 -1 19 -3 4 -6 -2 -5 -13z"/>
<path d="M23600 8519 c12 -8 9 -9 -12 -5 -16 4 -28 2 -28 -3 0 -5 -9 -13 -21
-16 -35 -11 -97 -74 -128 -129 -124 -218 -174 -645 -102 -876 52 -168 201
-200 332 -70 60 59 96 135 139 292 66 241 66 569 0 698 -26 51 -59 77 -125
100 -66 23 -77 24 -55 9z"/>
<path d="M23816 8447 c3 -10 9 -15 12 -12 3 3 0 11 -7 18 -10 9 -11 8 -5 -6z"/>
<path d="M30241 8479 c-62 -12 -147 -66 -188 -119 -113 -147 -185 -432 -170
-674 8 -134 41 -196 104 -196 100 0 279 184 386 397 49 96 165 552 144 565
-22 14 -146 38 -189 37 -24 -1 -63 -5 -87 -10z"/>
<path d="M34118 8633 c6 -2 18 -2 25 0 6 3 1 5 -13 5 -14 0 -19 -2 -12 -5z"/>
<path d="M42230 8570 c-9 -6 -10 -10 -3 -10 6 0 15 5 18 10 8 12 4 12 -15 0z"/>
<path d="M42282 8505 c-23 -7 -49 -18 -57 -25 -8 -6 -20 -8 -26 -4 -7 4 -9 3
-6 -3 4 -5 -7 -23 -24 -39 -55 -52 -112 -187 -144 -342 -22 -106 -22 -106 25
-98 71 11 251 87 290 122 78 70 114 184 90 283 -13 55 -55 101 -91 101 -11 0
-17 5 -14 10 3 6 5 10 3 9 -2 0 -22 -6 -46 -14z"/>
<path d="M43978 8643 c7 -3 16 -2 19 1 4 3 -2 6 -13 5 -11 0 -14 -3 -6 -6z"/>
<path d="M45923 8595 c0 -8 4 -12 9 -9 5 3 6 10 3 15 -9 13 -12 11 -12 -6z"/>
<path d="M45470 8526 c0 -2 7 -7 16 -10 8 -3 12 -2 9 4 -6 10 -25 14 -25 6z"/>
<path d="M45515 8520 c2 -4 -17 -17 -43 -29 -76 -36 -132 -121 -186 -283 -52
-160 -61 -221 -61 -438 0 -219 14 -297 64 -360 60 -76 159 -90 245 -34 77 50
114 109 165 264 47 144 61 229 68 410 9 249 -23 370 -112 432 -36 24 -151 56
-140 38z"/>
</g>
</svg>
